<svg width="157" height="29" viewBox="0 0 157 29" fill="none" xmlns="http://www.w3.org/2000/svg">
<path d="M18.4408 6.05005L2.77312 21.232C2.12785 21.8572 2.57049 22.9501 3.46901 22.9501H10.6383M10.6383 22.9501H27.3674C28.3933 22.9501 28.7539 21.5898 27.8628 21.0815L19.0785 16.071C18.699 15.8545 18.2229 15.9095 17.9027 16.2067L10.6383 22.9501Z" stroke="white" stroke-width="4"/>
<path d="M51.7307 13.76H59.7947V16.88H51.7307V13.76ZM52.0187 23H48.1307V6.2H60.8267V9.32H52.0187V23ZM70.9228 23.288C68.5388 23.288 66.6748 22.624 65.3308 21.296C63.9868 19.968 63.3148 18.072 63.3148 15.608V6.2H67.2028V15.464C67.2028 17.064 67.5308 18.216 68.1868 18.92C68.8428 19.624 69.7628 19.976 70.9468 19.976C72.1308 19.976 73.0508 19.624 73.7068 18.92C74.3628 18.216 74.6908 17.064 74.6908 15.464V6.2H78.5308V15.608C78.5308 18.072 77.8588 19.968 76.5148 21.296C75.1708 22.624 73.3068 23.288 70.9228 23.288ZM90.4849 23.288C89.1569 23.288 87.9329 23.08 86.8129 22.664C85.7089 22.232 84.7409 21.624 83.9089 20.84C83.0929 20.056 82.4529 19.136 81.9889 18.08C81.5409 17.024 81.3169 15.864 81.3169 14.6C81.3169 13.336 81.5409 12.176 81.9889 11.12C82.4529 10.064 83.1009 9.144 83.9329 8.36C84.7649 7.576 85.7409 6.976 86.8609 6.56C87.9809 6.128 89.2129 5.912 90.5569 5.912C92.0449 5.912 93.3809 6.16 94.5649 6.656C95.7649 7.152 96.7729 7.872 97.5889 8.816L95.0929 11.12C94.4849 10.48 93.8209 10.008 93.1009 9.704C92.3809 9.384 91.5969 9.224 90.7489 9.224C89.9329 9.224 89.1889 9.352 88.5169 9.608C87.8449 9.864 87.2609 10.232 86.7649 10.712C86.2849 11.192 85.9089 11.76 85.6369 12.416C85.3809 13.072 85.2529 13.8 85.2529 14.6C85.2529 15.384 85.3809 16.104 85.6369 16.76C85.9089 17.416 86.2849 17.992 86.7649 18.488C87.2609 18.968 87.8369 19.336 88.4929 19.592C89.1649 19.848 89.9009 19.976 90.7009 19.976C91.4689 19.976 92.2129 19.856 92.9329 19.616C93.6689 19.36 94.3809 18.936 95.0689 18.344L97.2769 21.152C96.3649 21.84 95.3009 22.368 94.0849 22.736C92.8849 23.104 91.6849 23.288 90.4849 23.288ZM93.7249 20.648V14.336H97.2769V21.152L93.7249 20.648ZM109.048 23.288C107.72 23.288 106.488 23.072 105.352 22.64C104.232 22.208 103.256 21.6 102.424 20.816C101.608 20.032 100.968 19.112 100.504 18.056C100.056 17 99.8325 15.848 99.8325 14.6C99.8325 13.352 100.056 12.2 100.504 11.144C100.968 10.088 101.616 9.168 102.448 8.384C103.28 7.6 104.256 6.992 105.376 6.56C106.496 6.128 107.712 5.912 109.024 5.912C110.352 5.912 111.568 6.128 112.672 6.56C113.792 6.992 114.76 7.6 115.576 8.384C116.408 9.168 117.056 10.088 117.52 11.144C117.984 12.184 118.216 13.336 118.216 14.6C118.216 15.848 117.984 17.008 117.52 18.08C117.056 19.136 116.408 20.056 115.576 20.84C114.76 21.608 113.792 22.208 112.672 22.64C111.568 23.072 110.36 23.288 109.048 23.288ZM109.024 19.976C109.776 19.976 110.464 19.848 111.088 19.592C111.728 19.336 112.288 18.968 112.768 18.488C113.248 18.008 113.616 17.44 113.872 16.784C114.144 16.128 114.28 15.4 114.28 14.6C114.28 13.8 114.144 13.072 113.872 12.416C113.616 11.76 113.248 11.192 112.768 10.712C112.304 10.232 111.752 9.864 111.112 9.608C110.472 9.352 109.776 9.224 109.024 9.224C108.272 9.224 107.576 9.352 106.936 9.608C106.312 9.864 105.76 10.232 105.28 10.712C104.8 11.192 104.424 11.76 104.152 12.416C103.896 13.072 103.768 13.8 103.768 14.6C103.768 15.384 103.896 16.112 104.152 16.784C104.424 17.44 104.792 18.008 105.256 18.488C105.736 18.968 106.296 19.336 106.936 19.592C107.576 19.848 108.272 19.976 109.024 19.976ZM124.618 19.16L124.402 14.672L132.442 6.2H136.762L129.514 14L127.354 16.304L124.618 19.16ZM121.138 23V6.2H125.002V23H121.138ZM132.634 23L126.658 15.68L129.202 12.92L137.17 23H132.634ZM146.134 23.288C143.75 23.288 141.886 22.624 140.542 21.296C139.198 19.968 138.526 18.072 138.526 15.608V6.2H142.414V15.464C142.414 17.064 142.742 18.216 143.398 18.92C144.054 19.624 144.974 19.976 146.158 19.976C147.342 19.976 148.262 19.624 148.918 18.92C149.574 18.216 149.902 17.064 149.902 15.464V6.2H153.742V15.608C153.742 18.072 153.07 19.968 151.726 21.296C150.382 22.624 148.518 23.288 146.134 23.288Z" fill="white"/>
</svg>
