    <svg
                      width="100"
                      height="100"
                      viewBox="0 0 176 248"
                      fill="none"
                      xmlns="http://www.w3.org/2000/svg"
                    >
                      <path
                        d="M175.277 181.359L73.6307 226.978L-28 181.359L73.6307 135.753L175.277 181.359Z"
                        fill="#2C6FD9"
                      />
                      <path
                        opacity="0.1"
                        d="M175.277 181.359L73.6307 226.978L-28 181.359L73.6307 135.753L175.277 181.359Z"
                        fill="black"
                      />
                      <path
                        opacity="0.1"
                        d="M73.6463 226.967L73.6307 221.279L-21.651 178.516L-28 181.361L73.6463 226.967Z"
                        fill="black"
                      />
                      <path
                        d="M73.646 226.967V247.996C75.9991 248.043 78.3292 247.625 80.4172 246.78L124.454 227.015L171.211 206.023C172.395 205.425 173.381 204.618 174.087 203.667C174.794 202.717 175.202 201.65 175.277 200.553V181.396L73.646 226.967Z"
                        fill="#2C6FD9"
                      />
                      <path
                        opacity="0.65"
                        d="M73.646 226.967V247.996C75.9991 248.043 78.3292 247.625 80.4172 246.78L124.454 227.015L171.211 206.023C172.395 205.425 173.381 204.618 174.087 203.667C174.794 202.717 175.202 201.65 175.277 200.553V181.396L73.646 226.967Z"
                        fill="white"
                      />
                      <path
                        d="M165.535 191.449L115.134 214.058C114.146 214.557 113.324 215.229 112.735 216.021C112.145 216.814 111.804 217.703 111.74 218.617V223.941C111.74 225.63 113.304 226.299 115.134 225.46L165.535 202.851C166.515 202.349 167.329 201.675 167.913 200.883C168.497 200.091 168.834 199.204 168.897 198.293V192.969C168.897 191.291 167.333 190.611 165.535 191.449Z"
                        fill="#2C6FD9"
                      />
                      <path
                        d="M165.347 195.984V198.561C165.329 198.742 165.26 198.918 165.144 199.076C165.027 199.234 164.867 199.369 164.674 199.472L163.908 199.813C163.533 199.983 163.236 199.813 163.236 199.509V196.932C163.253 196.75 163.322 196.574 163.439 196.417C163.555 196.259 163.715 196.123 163.908 196.02L164.674 195.68C165.034 195.485 165.347 195.619 165.347 195.984Z"
                        fill="#FAFAFA"
                      />
                      <path
                        d="M161.922 197.492V200.069C161.913 200.251 161.848 200.43 161.73 200.589C161.613 200.748 161.448 200.882 161.25 200.98L160.483 201.321C160.108 201.491 159.811 201.321 159.811 201.017V198.415C159.828 198.234 159.897 198.058 160.014 197.9C160.13 197.742 160.291 197.607 160.483 197.504L161.25 197.163C161.625 197.018 161.922 197.2 161.922 197.492Z"
                        fill="#FAFAFA"
                      />
                      <path
                        d="M158.498 199.022V201.599C158.489 201.782 158.423 201.96 158.306 202.119C158.189 202.278 158.024 202.412 157.825 202.511L157.059 202.863C156.684 203.021 156.387 202.863 156.387 202.559V199.97C156.404 199.789 156.473 199.613 156.59 199.455C156.706 199.297 156.866 199.162 157.059 199.059L157.825 198.718C158.201 198.548 158.498 198.682 158.498 199.022Z"
                        fill="#FAFAFA"
                      />
                      <path
                        d="M155.073 200.554V203.143C155.055 203.325 154.986 203.501 154.87 203.659C154.753 203.816 154.593 203.952 154.4 204.055L153.634 204.395C153.259 204.566 152.961 204.395 152.961 204.092V201.503C152.979 201.321 153.048 201.145 153.164 200.987C153.281 200.829 153.441 200.694 153.634 200.591L154.4 200.251C154.822 200.08 155.073 200.214 155.073 200.554Z"
                        fill="#455A64"
                      />
                      <path
                        d="M151.695 202.06V204.65C151.676 204.832 151.605 205.009 151.485 205.167C151.366 205.324 151.203 205.459 151.007 205.561L150.257 205.902C149.881 206.072 149.569 205.902 149.569 205.598V203.033C149.588 202.85 149.659 202.674 149.778 202.516C149.898 202.358 150.061 202.223 150.257 202.121L151.007 201.781C151.071 201.74 151.149 201.715 151.232 201.709C151.314 201.702 151.397 201.714 151.47 201.744C151.543 201.774 151.604 201.82 151.644 201.876C151.684 201.932 151.702 201.996 151.695 202.06Z"
                        fill="#455A64"
                      />
                      <path
                        d="M148.239 203.616V206.205C148.22 206.388 148.148 206.564 148.029 206.722C147.91 206.88 147.747 207.015 147.551 207.117L146.8 207.457C146.425 207.627 146.112 207.457 146.112 207.153V204.576C146.124 204.393 146.193 204.214 146.313 204.055C146.432 203.896 146.6 203.762 146.8 203.665L147.551 203.312C147.926 203.154 148.239 203.276 148.239 203.616Z"
                        fill="#FAFAFA"
                      />
                      <path
                        d="M144.815 205.16V207.737C144.798 207.919 144.728 208.095 144.612 208.253C144.495 208.41 144.335 208.546 144.142 208.649L143.376 208.989C143.001 209.159 142.704 208.989 142.704 208.685V206.108C142.721 205.927 142.79 205.751 142.907 205.593C143.023 205.435 143.183 205.3 143.376 205.197L144.142 204.856C144.502 204.686 144.815 204.82 144.815 205.16Z"
                        fill="#FAFAFA"
                      />
                      <path
                        d="M141.389 206.693V209.27C141.372 209.451 141.303 209.627 141.187 209.785C141.07 209.943 140.91 210.078 140.717 210.181L139.951 210.522C139.575 210.692 139.278 210.522 139.278 210.218V207.641C139.296 207.46 139.365 207.284 139.481 207.126C139.598 206.968 139.758 206.832 139.951 206.729L140.717 206.389C141.092 206.219 141.389 206.352 141.389 206.693Z"
                        fill="#FAFAFA"
                      />
                      <path
                        d="M137.965 208.223V210.8C137.956 210.983 137.89 211.161 137.773 211.32C137.656 211.479 137.491 211.613 137.292 211.712L136.526 212.064C136.151 212.222 135.854 212.064 135.854 211.76V209.171C135.871 208.99 135.94 208.814 136.056 208.656C136.173 208.498 136.333 208.363 136.526 208.259L137.292 207.919C137.621 207.749 137.965 207.883 137.965 208.223Z"
                        fill="#FAFAFA"
                      />
                      <path
                        d="M134.494 209.755V212.344C134.476 212.526 134.407 212.702 134.291 212.86C134.174 213.017 134.014 213.153 133.821 213.256L133.055 213.596C132.68 213.754 132.383 213.596 132.383 213.293V210.703C132.4 210.522 132.469 210.346 132.586 210.188C132.702 210.03 132.862 209.895 133.055 209.792L133.821 209.451C134.243 209.281 134.494 209.415 134.494 209.755Z"
                        fill="#FAFAFA"
                      />
                      <path
                        d="M131.131 211.286V213.875C131.112 214.058 131.041 214.234 130.922 214.392C130.802 214.55 130.639 214.685 130.443 214.787L129.677 215.127C129.317 215.297 129.005 215.127 129.005 214.823V212.234C129.022 212.053 129.091 211.877 129.208 211.719C129.324 211.561 129.484 211.426 129.677 211.323L130.443 210.982C130.509 210.939 130.591 210.913 130.676 210.907C130.762 210.901 130.848 210.915 130.923 210.948C130.998 210.982 131.058 211.032 131.095 211.092C131.133 211.152 131.145 211.22 131.131 211.286Z"
                        fill="#FAFAFA"
                      />
                      <path
                        d="M127.707 212.82V215.433C127.688 215.615 127.616 215.792 127.497 215.95C127.378 216.108 127.214 216.243 127.019 216.345L126.268 216.685C125.893 216.855 125.58 216.685 125.58 216.381V213.792C125.599 213.61 125.671 213.433 125.79 213.275C125.909 213.117 126.072 212.982 126.268 212.88L127.019 212.54C127.394 212.358 127.707 212.491 127.707 212.82Z"
                        fill="#FAFAFA"
                      />
                      <path
                        d="M124.282 214.351V216.94C124.265 217.122 124.196 217.298 124.079 217.455C123.963 217.613 123.803 217.749 123.61 217.852L122.844 218.192C122.468 218.362 122.171 218.192 122.171 217.888V215.311C122.18 215.128 122.246 214.95 122.363 214.791C122.48 214.632 122.645 214.498 122.844 214.4L123.61 214.047C123.676 214.008 123.756 213.986 123.839 213.982C123.921 213.978 124.004 213.994 124.076 214.026C124.147 214.058 124.205 214.106 124.242 214.164C124.279 214.222 124.293 214.287 124.282 214.351Z"
                        fill="#455A64"
                      />
                      <path
                        d="M120.858 215.893V218.47C120.841 218.651 120.771 218.827 120.655 218.985C120.539 219.143 120.378 219.278 120.186 219.381L119.419 219.722C119.044 219.892 118.747 219.722 118.747 219.418V216.841C118.764 216.66 118.833 216.483 118.95 216.326C119.066 216.168 119.227 216.032 119.419 215.929L120.186 215.589C120.561 215.431 120.858 215.552 120.858 215.893Z"
                        fill="#FAFAFA"
                      />
                      <path
                        d="M117.432 217.426V220.003C117.423 220.186 117.358 220.364 117.241 220.523C117.123 220.682 116.958 220.816 116.76 220.915L115.993 221.255C115.618 221.425 115.321 221.255 115.321 220.951V218.374C115.338 218.193 115.408 218.017 115.524 217.859C115.64 217.701 115.801 217.566 115.993 217.463L116.76 217.122C117.135 216.952 117.432 217.086 117.432 217.426Z"
                        fill="#FAFAFA"
                      />
                      <path
                        d="M-28 181.396V200.553C-27.9212 201.649 -27.5121 202.715 -26.8058 203.665C-26.0996 204.615 -25.1159 205.423 -23.9341 206.023L16.4742 224.159L66.8751 246.78C68.9627 247.626 71.293 248.044 73.6463 247.996V226.967L-28 181.396Z"
                        fill="#2C6FD9"
                      />
                      <path
                        opacity="0.5"
                        d="M-28 181.396V200.553C-27.9212 201.649 -27.5121 202.715 -26.8058 203.665C-26.0996 204.615 -25.1159 205.423 -23.9341 206.023L16.4742 224.159L66.8751 246.78C68.9627 247.626 71.293 248.044 73.6463 247.996V226.967L-28 181.396Z"
                        fill="white"
                      />
                      <g opacity="0.75">
                        <path
                          d="M-11.924 194.318L13.0967 205.537C14.0842 206.036 14.9062 206.708 15.4959 207.501C16.0856 208.293 16.4263 209.182 16.4901 210.096V215.432C16.4901 217.109 14.9263 217.79 13.0967 216.951L-11.924 205.732C-12.9068 205.231 -13.7245 204.557 -14.3112 203.765C-14.8979 202.974 -15.2372 202.086 -15.3018 201.174V195.85C-15.3018 194.16 -13.7849 193.479 -11.924 194.318Z"
                          fill="white"
                        />
                      </g>
                      <path
                        d="M4.07324 206.048L5.63703 205.355C5.96844 205.237 6.33397 205.19 6.69652 205.218C7.05907 205.245 7.40571 205.347 7.70123 205.513C8.55946 205.947 9.27424 206.531 9.78771 207.22C10.3012 207.908 10.5989 208.681 10.6568 209.475C10.6948 209.76 10.6353 210.047 10.4842 210.307C10.3331 210.568 10.0959 210.792 9.79672 210.958L8.34239 211.603L8.07655 211.262C7.78435 211.212 7.50444 211.126 7.24773 211.007C6.3895 210.573 5.67473 209.988 5.16127 209.3C4.6478 208.611 4.35007 207.839 4.29217 207.044C4.29732 206.848 4.32877 206.652 4.38601 206.461L4.07324 206.048Z"
                        fill="#2C6FD9"
                      />
                      <path
                        opacity="0.2"
                        d="M4.07324 206.048L5.63703 205.355C5.96844 205.237 6.33397 205.19 6.69652 205.218C7.05907 205.245 7.40571 205.347 7.70123 205.513C8.55946 205.947 9.27424 206.531 9.78771 207.22C10.3012 207.908 10.5989 208.681 10.6568 209.475C10.6948 209.76 10.6353 210.047 10.4842 210.307C10.3331 210.568 10.0959 210.792 9.79672 210.958L8.34239 211.603L8.07655 211.262C7.78435 211.212 7.50444 211.126 7.24773 211.007C6.3895 210.573 5.67473 209.988 5.16127 209.3C4.6478 208.611 4.35007 207.839 4.29217 207.044C4.29732 206.848 4.32877 206.652 4.38601 206.461L4.07324 206.048Z"
                        fill="black"
                      />
                      <path
                        d="M6.26316 206.182C7.11935 206.616 7.83174 207.201 8.34254 207.89C8.85333 208.578 9.14815 209.351 9.20308 210.144C9.20308 211.603 7.8895 212.199 6.26316 211.469C5.40697 211.035 4.69458 210.45 4.18378 209.761C3.67298 209.073 3.37817 208.3 3.32324 207.507C3.27633 206.048 4.5899 205.453 6.26316 206.182Z"
                        fill="#2C6FD9"
                      />
                      <g opacity="0.75">
                        <path
                          d="M-11.924 194.318L13.0967 205.537C14.0842 206.036 14.9062 206.708 15.4959 207.501C16.0856 208.293 16.4263 209.182 16.4901 210.096V215.432C16.4901 217.109 14.9263 217.79 13.0967 216.951L-11.924 205.732C-12.9068 205.231 -13.7245 204.557 -14.3112 203.765C-14.8979 202.974 -15.2372 202.086 -15.3018 201.174V195.85C-15.3018 194.16 -13.7849 193.479 -11.924 194.318Z"
                          fill="white"
                        />
                      </g>
                      <path
                        d="M4.07324 206.048L5.63703 205.355C5.96844 205.237 6.33397 205.19 6.69652 205.218C7.05907 205.245 7.40571 205.347 7.70123 205.513C8.55946 205.947 9.27424 206.531 9.78771 207.22C10.3012 207.908 10.5989 208.681 10.6568 209.475C10.6948 209.76 10.6353 210.047 10.4842 210.307C10.3331 210.568 10.0959 210.792 9.79672 210.958L8.34239 211.603L8.07655 211.262C7.78435 211.212 7.50444 211.126 7.24773 211.007C6.3895 210.573 5.67473 209.988 5.16127 209.3C4.6478 208.611 4.35007 207.839 4.29217 207.044C4.29732 206.848 4.32877 206.652 4.38601 206.461L4.07324 206.048Z"
                        fill="#2C6FD9"
                      />
                      <path
                        opacity="0.2"
                        d="M4.07324 206.048L5.63703 205.355C5.96844 205.237 6.33397 205.19 6.69652 205.218C7.05907 205.245 7.40571 205.347 7.70123 205.513C8.55946 205.947 9.27424 206.531 9.78771 207.22C10.3012 207.908 10.5989 208.681 10.6568 209.475C10.6948 209.76 10.6353 210.047 10.4842 210.307C10.3331 210.568 10.0959 210.792 9.79672 210.958L8.34239 211.603L8.07655 211.262C7.78435 211.212 7.50444 211.126 7.24773 211.007C6.3895 210.573 5.67473 209.988 5.16127 209.3C4.6478 208.611 4.35007 207.839 4.29217 207.044C4.29732 206.848 4.32877 206.652 4.38601 206.461L4.07324 206.048Z"
                        fill="black"
                      />
                      <path
                        d="M6.26316 206.182C7.11935 206.616 7.83174 207.201 8.34254 207.89C8.85333 208.578 9.14815 209.351 9.20308 210.144C9.20308 211.603 7.8895 212.199 6.26316 211.469C5.40697 211.035 4.69458 210.45 4.18378 209.761C3.67298 209.073 3.37817 208.3 3.32324 207.507C3.27633 206.048 4.5899 205.453 6.26316 206.182Z"
                        fill="#2C6FD9"
                      />
                      <path
                        d="M102.733 223.806L101.169 223.113C100.836 222.998 100.47 222.952 100.107 222.982C99.7445 223.012 99.3986 223.116 99.1045 223.284C98.2483 223.718 97.536 224.303 97.0252 224.992C96.5144 225.68 96.2196 226.453 96.1646 227.246C96.1281 227.529 96.1867 227.815 96.3347 228.075C96.4827 228.334 96.7151 228.56 97.0091 228.729L98.4477 229.373L98.7136 229.033C99.01 228.982 99.2947 228.896 99.5581 228.778C100.414 228.343 101.127 227.758 101.637 227.07C102.148 226.381 102.443 225.609 102.498 224.815C102.494 224.619 102.462 224.423 102.404 224.232L102.733 223.806Z"
                        fill="#2C6FD9"
                      />
                      <path
                        opacity="0.4"
                        d="M102.733 223.806L101.169 223.113C100.836 222.998 100.47 222.952 100.107 222.982C99.7445 223.012 99.3986 223.116 99.1045 223.284C98.2483 223.718 97.536 224.303 97.0252 224.992C96.5144 225.68 96.2196 226.453 96.1646 227.246C96.1281 227.529 96.1867 227.815 96.3347 228.075C96.4827 228.334 96.7151 228.56 97.0091 228.729L98.4477 229.373L98.7136 229.033C99.01 228.982 99.2947 228.896 99.5581 228.778C100.414 228.343 101.127 227.758 101.637 227.07C102.148 226.381 102.443 225.609 102.498 224.815C102.494 224.619 102.462 224.423 102.404 224.232L102.733 223.806Z"
                        fill="black"
                      />
                      <path
                        d="M100.59 223.941C99.7339 224.376 99.0215 224.961 98.5107 225.649C97.9999 226.338 97.7051 227.11 97.6501 227.904C97.6501 229.362 98.9637 229.946 100.59 229.217C101.446 228.782 102.159 228.197 102.669 227.508C103.18 226.82 103.475 226.048 103.53 225.254C103.53 223.795 102.216 223.212 100.59 223.941Z"
                        fill="#2C6FD9"
                      />
                      <path
                        opacity="0.2"
                        d="M100.59 223.941C99.7339 224.376 99.0215 224.961 98.5107 225.649C97.9999 226.338 97.7051 227.11 97.6501 227.904C97.6501 229.362 98.9637 229.946 100.59 229.217C101.446 228.782 102.159 228.197 102.669 227.508C103.18 226.82 103.475 226.048 103.53 225.254C103.53 223.795 102.216 223.212 100.59 223.941Z"
                        fill="black"
                      />
                      <path
                        d="M89.9566 229.532L88.3928 228.839C88.0607 228.724 87.6957 228.678 87.3338 228.705C86.9719 228.733 86.6255 228.834 86.3286 228.997C85.4724 229.431 84.7601 230.017 84.2493 230.705C83.7385 231.394 83.4437 232.166 83.3887 232.96C83.3507 233.244 83.4102 233.531 83.5613 233.791C83.7124 234.052 83.9496 234.276 84.2488 234.443L85.6875 235.087L85.9533 234.746C86.2497 234.695 86.5344 234.609 86.7978 234.491C87.654 234.057 88.3664 233.471 88.8772 232.783C89.388 232.095 89.6828 231.322 89.7377 230.529C89.7403 230.332 89.7088 230.135 89.6439 229.945L89.9566 229.532Z"
                        fill="#2C6FD9"
                      />
                      <path
                        opacity="0.4"
                        d="M89.9566 229.532L88.3928 228.839C88.0607 228.724 87.6957 228.678 87.3338 228.705C86.9719 228.733 86.6255 228.834 86.3286 228.997C85.4724 229.431 84.7601 230.017 84.2493 230.705C83.7385 231.394 83.4437 232.166 83.3887 232.96C83.3507 233.244 83.4102 233.531 83.5613 233.791C83.7124 234.052 83.9496 234.276 84.2488 234.443L85.6875 235.087L85.9533 234.746C86.2497 234.695 86.5344 234.609 86.7978 234.491C87.654 234.057 88.3664 233.471 88.8772 232.783C89.388 232.095 89.6828 231.322 89.7377 230.529C89.7403 230.332 89.7088 230.135 89.6439 229.945L89.9566 229.532Z"
                        fill="black"
                      />
                      <path
                        d="M87.8147 229.665C86.9585 230.099 86.2461 230.685 85.7353 231.373C85.2245 232.062 84.9297 232.834 84.8748 233.628C84.8748 235.086 86.1883 235.682 87.8147 234.953C88.6622 234.514 89.3654 233.927 89.8679 233.239C90.3704 232.551 90.658 231.78 90.7077 230.99C90.7077 229.531 89.441 228.936 87.8147 229.665Z"
                        fill="#2C6FD9"
                      />
                      <path
                        opacity="0.2"
                        d="M87.8147 229.665C86.9585 230.099 86.2461 230.685 85.7353 231.373C85.2245 232.062 84.9297 232.834 84.8748 233.628C84.8748 235.086 86.1883 235.682 87.8147 234.953C88.6622 234.514 89.3654 233.927 89.8679 233.239C90.3704 232.551 90.658 231.78 90.7077 230.99C90.7077 229.531 89.441 228.936 87.8147 229.665Z"
                        fill="black"
                      />
                      <path
                        d="M175.277 147.156L73.6307 192.763L-28 147.156L73.6307 101.549L175.277 147.156Z"
                        fill="#2C6FD9"
                      />
                      <path
                        opacity="0.1"
                        d="M175.277 147.156L73.6307 192.763L-28 147.156L73.6307 101.549L175.277 147.156Z"
                        fill="black"
                      />
                      <path
                        opacity="0.1"
                        d="M73.6307 192.762V187.061L-21.651 144.311L-28 147.155L73.6307 192.762Z"
                        fill="black"
                      />
                      <path
                        d="M175.261 169.959L73.6306 215.578V192.762L175.277 147.155L175.261 169.959Z"
                        fill="#2C6FD9"
                      />
                      <path
                        opacity="0.65"
                        d="M175.261 169.959L73.6306 215.578V192.762L175.277 147.155L175.261 169.959Z"
                        fill="white"
                      />
                      <path
                        d="M165.535 157.244L115.134 179.865C114.146 180.363 113.324 181.036 112.735 181.828C112.145 182.62 111.804 183.509 111.74 184.423V189.747C111.74 191.424 113.304 192.105 115.134 191.266L165.535 168.645C166.518 168.144 167.335 167.471 167.922 166.679C168.509 165.887 168.848 164.999 168.913 164.087V158.763C168.897 157.086 167.333 156.405 165.535 157.244Z"
                        fill="#2C6FD9"
                      />
                      <path
                        d="M165.347 161.754V164.379C165.329 164.56 165.26 164.737 165.144 164.894C165.027 165.052 164.867 165.188 164.674 165.291L163.908 165.643C163.533 165.801 163.236 165.643 163.236 165.339V162.75C163.253 162.569 163.322 162.393 163.439 162.235C163.555 162.077 163.715 161.942 163.908 161.839L164.674 161.498C165.034 161.28 165.347 161.413 165.347 161.754Z"
                        fill="#FAFAFA"
                      />
                      <path
                        d="M161.922 163.286V165.875C161.905 166.057 161.835 166.233 161.719 166.391C161.603 166.548 161.442 166.684 161.25 166.787L160.483 167.127C160.108 167.297 159.811 167.127 159.811 166.823V164.234C159.828 164.053 159.897 163.877 160.014 163.719C160.13 163.561 160.291 163.426 160.483 163.323L161.25 162.982C161.625 162.812 161.922 162.946 161.922 163.286Z"
                        fill="#455A64"
                      />
                      <path
                        d="M158.498 164.818V167.407C158.481 167.589 158.411 167.765 158.295 167.922C158.179 168.08 158.018 168.216 157.825 168.319L157.059 168.659C156.684 168.829 156.387 168.659 156.387 168.355V165.766C156.404 165.585 156.473 165.409 156.59 165.251C156.706 165.093 156.866 164.958 157.059 164.855L157.825 164.514C158.201 164.38 158.498 164.49 158.498 164.818Z"
                        fill="#FAFAFA"
                      />
                      <path
                        d="M155.073 166.348V168.937C155.055 169.118 154.986 169.294 154.87 169.452C154.753 169.61 154.593 169.745 154.4 169.849L153.634 170.189C153.259 170.359 152.961 170.189 152.961 169.885V167.308C152.97 167.125 153.036 166.947 153.153 166.788C153.27 166.629 153.435 166.495 153.634 166.396L154.4 166.044C154.822 165.886 155.073 166.02 155.073 166.348Z"
                        fill="#455A64"
                      />
                      <path
                        d="M151.695 167.892V170.457C151.676 170.639 151.605 170.816 151.485 170.974C151.366 171.132 151.203 171.267 151.007 171.369L150.257 171.709C149.881 171.879 149.569 171.709 149.569 171.405V168.828C149.588 168.646 149.659 168.469 149.778 168.311C149.898 168.153 150.061 168.018 150.257 167.916L151.007 167.576C151.351 167.418 151.695 167.552 151.695 167.892Z"
                        fill="#455A64"
                      />
                      <path
                        d="M148.239 169.425V172.001C148.22 172.184 148.148 172.361 148.029 172.518C147.91 172.676 147.747 172.811 147.551 172.913L146.8 173.253C146.425 173.424 146.112 173.253 146.112 172.95V170.373C146.131 170.19 146.203 170.013 146.322 169.856C146.441 169.698 146.605 169.563 146.8 169.461L147.551 169.121C147.926 168.95 148.239 169.084 148.239 169.425Z"
                        fill="#FAFAFA"
                      />
                      <path
                        d="M144.815 170.954V173.531C144.798 173.713 144.728 173.889 144.612 174.047C144.495 174.204 144.335 174.34 144.142 174.443L143.376 174.795C143.001 174.953 142.704 174.795 142.704 174.492V171.902C142.721 171.721 142.79 171.545 142.907 171.387C143.023 171.23 143.183 171.094 143.376 170.991L144.142 170.651C144.502 170.456 144.815 170.614 144.815 170.954Z"
                        fill="#FAFAFA"
                      />
                      <path
                        d="M141.389 172.487V175.076C141.372 175.258 141.303 175.434 141.187 175.591C141.07 175.749 140.91 175.885 140.717 175.988L139.951 176.328C139.575 176.486 139.278 176.328 139.278 176.024V173.435C139.296 173.254 139.365 173.078 139.481 172.92C139.598 172.762 139.758 172.627 139.951 172.524L140.717 172.183C141.092 172.013 141.389 172.147 141.389 172.487Z"
                        fill="#FAFAFA"
                      />
                      <path
                        d="M137.965 174.02V176.609C137.947 176.79 137.878 176.966 137.762 177.124C137.645 177.282 137.485 177.417 137.292 177.52L136.526 177.861C136.151 178.031 135.854 177.861 135.854 177.557V174.968C135.871 174.786 135.94 174.61 136.056 174.452C136.173 174.295 136.333 174.159 136.526 174.056L137.292 173.716C137.621 173.545 137.965 173.691 137.965 174.02Z"
                        fill="#455A64"
                      />
                      <path
                        d="M134.494 175.55V178.139C134.476 178.32 134.407 178.496 134.291 178.654C134.174 178.812 134.014 178.947 133.821 179.05L133.055 179.391C132.68 179.561 132.383 179.391 132.383 179.087V176.534C132.4 176.353 132.469 176.177 132.586 176.019C132.702 175.861 132.862 175.726 133.055 175.623L133.821 175.282C134.243 175.088 134.494 175.221 134.494 175.55Z"
                        fill="#FAFAFA"
                      />
                      <path
                        d="M131.131 177.081V179.67C131.112 179.853 131.041 180.029 130.922 180.187C130.802 180.345 130.639 180.48 130.443 180.582L129.677 180.922C129.317 181.092 129.005 180.922 129.005 180.618V178.041C129.022 177.86 129.091 177.684 129.208 177.526C129.324 177.368 129.484 177.233 129.677 177.13L130.443 176.777C130.819 176.619 131.131 176.753 131.131 177.081Z"
                        fill="#455A64"
                      />
                      <path
                        d="M127.707 178.626V181.203C127.688 181.385 127.616 181.562 127.497 181.72C127.378 181.877 127.214 182.012 127.019 182.114L126.268 182.455C125.893 182.625 125.58 182.455 125.58 182.151V179.574C125.599 179.391 125.671 179.215 125.79 179.057C125.909 178.899 126.072 178.764 126.268 178.662L127.019 178.322C127.394 178.152 127.707 178.285 127.707 178.626Z"
                        fill="#FAFAFA"
                      />
                      <path
                        d="M124.282 180.182V182.759C124.265 182.94 124.196 183.116 124.079 183.274C123.963 183.432 123.803 183.567 123.61 183.671L122.844 184.011C122.468 184.181 122.171 184.011 122.171 183.707V181.13C122.188 180.949 122.258 180.773 122.374 180.615C122.49 180.457 122.651 180.322 122.844 180.218L123.61 179.878C123.969 179.684 124.282 179.817 124.282 180.182Z"
                        fill="#455A64"
                      />
                      <path
                        d="M120.858 181.688V184.265C120.849 184.447 120.783 184.626 120.666 184.785C120.549 184.944 120.384 185.078 120.186 185.176L119.419 185.529C119.044 185.687 118.747 185.529 118.747 185.225V182.611C118.764 182.43 118.833 182.254 118.95 182.096C119.066 181.938 119.227 181.803 119.419 181.7L120.186 181.359C120.561 181.214 120.858 181.396 120.858 181.688Z"
                        fill="#FAFAFA"
                      />
                      <path
                        d="M117.432 183.22V185.81C117.415 185.991 117.346 186.167 117.229 186.325C117.113 186.483 116.952 186.618 116.76 186.721L115.993 187.062C115.618 187.232 115.321 187.062 115.321 186.758V184.169C115.338 183.987 115.408 183.811 115.524 183.653C115.64 183.496 115.801 183.36 115.993 183.257L116.76 182.917C117.135 182.746 117.432 182.88 117.432 183.22Z"
                        fill="#FAFAFA"
                      />
                      <path
                        d="M73.6307 215.578L-28 169.959V147.155L73.6307 192.762V215.578Z"
                        fill="#2C6FD9"
                      />
                      <path
                        opacity="0.5"
                        d="M73.6307 215.578L-28 169.959V147.155L73.6307 192.762V215.578Z"
                        fill="white"
                      />
                      <g opacity="0.75">
                        <path
                          d="M-11.924 160.088L13.0967 171.296C14.0842 171.794 14.9062 172.467 15.4959 173.259C16.0856 174.051 16.4263 174.94 16.4901 175.854V181.178C16.4901 182.855 14.9263 183.536 13.0967 182.697L-11.924 171.49C-12.9068 170.989 -13.7245 170.315 -14.3112 169.524C-14.8979 168.732 -15.2372 167.844 -15.3018 166.932V161.608C-15.3018 159.918 -13.7849 159.25 -11.924 160.088Z"
                          fill="white"
                        />
                      </g>
                      <path
                        d="M4.07324 171.817L5.63703 171.125C5.96978 171.009 6.33608 170.963 6.69865 170.993C7.06123 171.023 7.40715 171.127 7.70123 171.295C8.55946 171.729 9.27424 172.313 9.78771 173.002C10.3012 173.69 10.5989 174.463 10.6568 175.257C10.6948 175.542 10.6353 175.829 10.4842 176.089C10.3331 176.35 10.0959 176.574 9.79672 176.74L8.34239 177.385L8.07655 177.044C7.78435 176.995 7.50444 176.908 7.24773 176.789C6.3895 176.355 5.67473 175.77 5.16127 175.082C4.6478 174.394 4.35007 173.621 4.29217 172.826C4.29638 172.63 4.32785 172.434 4.38601 172.243L4.07324 171.817Z"
                        fill="#2C6FD9"
                      />
                      <path
                        opacity="0.2"
                        d="M4.07324 171.817L5.63703 171.125C5.96978 171.009 6.33608 170.963 6.69865 170.993C7.06123 171.023 7.40715 171.127 7.70123 171.295C8.55946 171.729 9.27424 172.313 9.78771 173.002C10.3012 173.69 10.5989 174.463 10.6568 175.257C10.6948 175.542 10.6353 175.829 10.4842 176.089C10.3331 176.35 10.0959 176.574 9.79672 176.74L8.34239 177.385L8.07655 177.044C7.78435 176.995 7.50444 176.908 7.24773 176.789C6.3895 176.355 5.67473 175.77 5.16127 175.082C4.6478 174.394 4.35007 173.621 4.29217 172.826C4.29638 172.63 4.32785 172.434 4.38601 172.243L4.07324 171.817Z"
                        fill="black"
                      />
                      <path
                        d="M6.26316 171.952C7.11935 172.387 7.83174 172.972 8.34254 173.66C8.85333 174.349 9.14815 175.121 9.20308 175.915C9.20308 177.374 7.8895 177.957 6.26316 177.228C5.40697 176.793 4.69458 176.208 4.18378 175.52C3.67298 174.831 3.37817 174.059 3.32324 173.265C3.27633 171.806 4.5899 171.223 6.26316 171.952Z"
                        fill="#2C6FD9"
                      />
                      <path
                        d="M162.563 181.362V175.661L73.6306 215.579V221.28L162.563 181.362Z"
                        fill="#455A64"
                      />
                      <path
                        d="M-21.6514 172.816V178.517L73.6303 221.279V215.579L-21.6514 172.816Z"
                        fill="#2C6FD9"
                      />
                      <path
                        d="M-21.6514 172.816V178.517L73.6303 221.279V215.579L-21.6514 172.816Z"
                        fill="#37474F"
                      />
                      <path
                        d="M102.733 189.603L101.169 188.91C100.837 188.794 100.47 188.749 100.108 188.779C99.7451 188.809 99.3991 188.913 99.1051 189.08C98.2489 189.515 97.5365 190.1 97.0257 190.788C96.5149 191.477 96.2201 192.249 96.1652 193.043C96.1266 193.324 96.1845 193.608 96.3328 193.867C96.4811 194.125 96.7146 194.348 97.0096 194.514L98.4483 195.158L98.7141 194.83C99.0083 194.773 99.2921 194.687 99.5586 194.574C100.415 194.14 101.127 193.555 101.638 192.866C102.149 192.178 102.444 191.405 102.498 190.612C102.494 190.415 102.463 190.22 102.405 190.028L102.733 189.603Z"
                        fill="#2C6FD9"
                      />
                      <path
                        opacity="0.4"
                        d="M102.733 189.603L101.169 188.91C100.837 188.794 100.47 188.749 100.108 188.779C99.7451 188.809 99.3991 188.913 99.1051 189.08C98.2489 189.515 97.5365 190.1 97.0257 190.788C96.5149 191.477 96.2201 192.249 96.1652 193.043C96.1266 193.324 96.1845 193.608 96.3328 193.867C96.4811 194.125 96.7146 194.348 97.0096 194.514L98.4483 195.158L98.7141 194.83C99.0083 194.773 99.2921 194.687 99.5586 194.574C100.415 194.14 101.127 193.555 101.638 192.866C102.149 192.178 102.444 191.405 102.498 190.612C102.494 190.415 102.463 190.22 102.405 190.028L102.733 189.603Z"
                        fill="black"
                      />
                      <path
                        d="M100.59 189.735C99.7342 190.167 99.0217 190.75 98.5108 191.437C97.9999 192.123 97.705 192.894 97.6501 193.686C97.6501 195.157 98.9637 195.74 100.59 195.011C101.446 194.576 102.159 193.991 102.669 193.303C103.18 192.614 103.475 191.842 103.53 191.048C103.53 189.59 102.216 189.006 100.59 189.735Z"
                        fill="#2C6FD9"
                      />
                      <path
                        opacity="0.2"
                        d="M100.59 189.735C99.7342 190.167 99.0217 190.75 98.5108 191.437C97.9999 192.123 97.705 192.894 97.6501 193.686C97.6501 195.157 98.9637 195.74 100.59 195.011C101.446 194.576 102.159 193.991 102.669 193.303C103.18 192.614 103.475 191.842 103.53 191.048C103.53 189.59 102.216 189.006 100.59 189.735Z"
                        fill="black"
                      />
                      <path
                        d="M89.9566 195.327L88.3928 194.634C88.0626 194.512 87.6962 194.463 87.3326 194.491C86.9691 194.519 86.6221 194.623 86.3286 194.792C85.4724 195.226 84.7601 195.811 84.2493 196.5C83.7385 197.188 83.4437 197.961 83.3887 198.754C83.3507 199.039 83.4102 199.326 83.5613 199.586C83.7124 199.847 83.9496 200.071 84.2488 200.237L85.6875 200.882L85.9533 200.541C86.2497 200.49 86.5344 200.404 86.7978 200.286C87.654 199.852 88.3664 199.266 88.8772 198.578C89.388 197.889 89.6828 197.117 89.7377 196.323C89.7403 196.126 89.7088 195.93 89.6439 195.74L89.9566 195.327Z"
                        fill="#2C6FD9"
                      />
                      <path
                        opacity="0.4"
                        d="M89.9566 195.327L88.3928 194.634C88.0626 194.512 87.6962 194.463 87.3326 194.491C86.9691 194.519 86.6221 194.623 86.3286 194.792C85.4724 195.226 84.7601 195.811 84.2493 196.5C83.7385 197.188 83.4437 197.961 83.3887 198.754C83.3507 199.039 83.4102 199.326 83.5613 199.586C83.7124 199.847 83.9496 200.071 84.2488 200.237L85.6875 200.882L85.9533 200.541C86.2497 200.49 86.5344 200.404 86.7978 200.286C87.654 199.852 88.3664 199.266 88.8772 198.578C89.388 197.889 89.6828 197.117 89.7377 196.323C89.7403 196.126 89.7088 195.93 89.6439 195.74L89.9566 195.327Z"
                        fill="black"
                      />
                      <path
                        d="M87.8147 195.461C86.9585 195.896 86.2461 196.481 85.7353 197.169C85.2245 197.858 84.9297 198.63 84.8748 199.424C84.8748 200.882 86.1883 201.478 87.8147 200.749C88.6709 200.314 89.3833 199.729 89.8941 199.041C90.4048 198.352 90.6997 197.58 90.7546 196.786C90.7077 195.327 89.441 194.768 87.8147 195.461Z"
                        fill="#2C6FD9"
                      />
                      <path
                        opacity="0.2"
                        d="M87.8147 195.461C86.9585 195.896 86.2461 196.481 85.7353 197.169C85.2245 197.858 84.9297 198.63 84.8748 199.424C84.8748 200.882 86.1883 201.478 87.8147 200.749C88.6709 200.314 89.3833 199.729 89.8941 199.041C90.4048 198.352 90.6997 197.58 90.7546 196.786C90.7077 195.327 89.441 194.768 87.8147 195.461Z"
                        fill="black"
                      />
                      <path
                        d="M175.277 112.949L73.6307 158.556L-28 112.949L73.6307 67.3303L175.277 112.949Z"
                        fill="#2C6FD9"
                      />
                      <path
                        opacity="0.1"
                        d="M175.277 112.949L73.6307 158.556L-28 112.949L73.6307 67.3303L175.277 112.949Z"
                        fill="black"
                      />
                      <path
                        opacity="0.1"
                        d="M73.6307 158.557V152.856L-21.651 110.094L-28 112.951L73.6307 158.557Z"
                        fill="black"
                      />
                      <path
                        d="M175.261 135.753L73.6306 181.36V158.556L175.277 112.95L175.261 135.753Z"
                        fill="#2C6FD9"
                      />
                      <path
                        opacity="0.65"
                        d="M175.261 135.753L73.6306 181.36V158.556L175.277 112.95L175.261 135.753Z"
                        fill="white"
                      />
                      <path
                        d="M165.535 123.051L115.134 145.672C114.146 146.17 113.324 146.843 112.735 147.635C112.145 148.427 111.804 149.316 111.74 150.23V155.554C111.74 157.232 113.304 157.912 115.134 157.073L165.535 134.452C166.518 133.951 167.335 133.278 167.922 132.486C168.509 131.694 168.848 130.807 168.913 129.894V124.57C168.897 122.844 167.333 122.163 165.535 123.051Z"
                        fill="#2C6FD9"
                      />
                      <path
                        d="M165.347 127.513V130.102C165.329 130.283 165.26 130.459 165.144 130.617C165.027 130.775 164.867 130.91 164.674 131.014L163.908 131.354C163.533 131.512 163.236 131.354 163.236 131.05V128.461C163.253 128.28 163.322 128.104 163.439 127.946C163.555 127.788 163.715 127.653 163.908 127.549L164.674 127.209C165.034 127.039 165.347 127.173 165.347 127.513Z"
                        fill="#FAFAFA"
                      />
                      <path
                        d="M161.922 129.043V131.632C161.905 131.814 161.835 131.99 161.719 132.147C161.603 132.305 161.442 132.441 161.25 132.544L160.483 132.884C160.108 133.054 159.811 132.884 159.811 132.58V129.991C159.828 129.81 159.897 129.634 160.014 129.476C160.13 129.318 160.291 129.183 160.483 129.08L161.25 128.739C161.625 128.569 161.922 128.715 161.922 129.043Z"
                        fill="#FAFAFA"
                      />
                      <path
                        d="M158.498 130.575V133.164C158.481 133.346 158.411 133.522 158.295 133.68C158.179 133.837 158.018 133.973 157.825 134.076L157.059 134.416C156.684 134.587 156.387 134.416 156.387 134.113V131.56C156.404 131.379 156.473 131.202 156.59 131.045C156.706 130.887 156.866 130.751 157.059 130.648L157.825 130.308C158.201 130.113 158.498 130.247 158.498 130.575Z"
                        fill="#FAFAFA"
                      />
                      <path
                        d="M155.073 132.107V134.696C155.055 134.877 154.986 135.053 154.87 135.211C154.753 135.369 154.593 135.504 154.4 135.608L153.634 135.948C153.259 136.118 152.961 135.948 152.961 135.644V133.067C152.97 132.884 153.036 132.706 153.153 132.547C153.27 132.388 153.435 132.254 153.634 132.156L154.4 131.803C154.822 131.645 155.073 131.779 155.073 132.107Z"
                        fill="#FAFAFA"
                      />
                      <path
                        d="M151.695 133.651V136.228C151.676 136.411 151.605 136.587 151.485 136.745C151.366 136.903 151.203 137.038 151.007 137.14L150.257 137.48C149.881 137.65 149.569 137.48 149.569 137.176V134.599C149.588 134.417 149.659 134.24 149.778 134.082C149.898 133.924 150.061 133.79 150.257 133.688L151.007 133.347C151.351 133.177 151.695 133.311 151.695 133.651Z"
                        fill="#455A64"
                      />
                      <path
                        d="M148.239 135.206V137.783C148.227 137.966 148.159 138.145 148.039 138.304C147.919 138.463 147.752 138.597 147.551 138.694L146.8 139.035C146.425 139.205 146.112 139.035 146.112 138.731V136.154C146.131 135.971 146.203 135.795 146.322 135.637C146.441 135.479 146.605 135.344 146.8 135.242L147.551 134.902C147.926 134.707 148.239 134.841 148.239 135.206Z"
                        fill="#455A64"
                      />
                      <path
                        d="M144.815 136.714V139.29C144.798 139.472 144.728 139.648 144.612 139.806C144.495 139.963 144.335 140.099 144.142 140.202L143.376 140.555C143.001 140.713 142.704 140.555 142.704 140.251V137.637C142.721 137.456 142.79 137.28 142.907 137.122C143.023 136.964 143.183 136.829 143.376 136.726L144.142 136.385C144.502 136.239 144.815 136.422 144.815 136.714Z"
                        fill="#FAFAFA"
                      />
                      <path
                        d="M141.389 138.246V140.835C141.372 141.017 141.303 141.193 141.187 141.35C141.07 141.508 140.91 141.644 140.717 141.747L139.951 142.087C139.575 142.257 139.278 142.087 139.278 141.783V139.194C139.296 139.013 139.365 138.837 139.481 138.679C139.598 138.521 139.758 138.386 139.951 138.283L140.717 137.942C141.092 137.772 141.389 137.906 141.389 138.246Z"
                        fill="#FAFAFA"
                      />
                      <path
                        d="M137.965 139.776V142.365C137.947 142.547 137.878 142.723 137.762 142.881C137.645 143.038 137.485 143.174 137.292 143.277L136.526 143.617C136.151 143.788 135.854 143.617 135.854 143.314V140.724C135.871 140.543 135.94 140.367 136.056 140.209C136.173 140.051 136.333 139.916 136.526 139.813L137.292 139.472C137.621 139.302 137.965 139.448 137.965 139.776Z"
                        fill="#FAFAFA"
                      />
                      <path
                        d="M134.494 141.285V143.874C134.476 144.055 134.407 144.231 134.291 144.389C134.174 144.547 134.014 144.682 133.821 144.785L133.055 145.126C132.68 145.296 132.383 145.126 132.383 144.822V142.245C132.391 142.062 132.457 141.883 132.574 141.725C132.691 141.566 132.856 141.432 133.055 141.333L133.821 140.981C134.243 140.847 134.494 140.981 134.494 141.285Z"
                        fill="#455A64"
                      />
                      <path
                        d="M131.131 142.852V145.429C131.112 145.612 131.041 145.788 130.922 145.946C130.802 146.104 130.639 146.239 130.443 146.341L129.677 146.681C129.317 146.851 129.005 146.681 129.005 146.377V143.8C129.022 143.619 129.091 143.443 129.208 143.285C129.324 143.127 129.484 142.992 129.677 142.889L130.443 142.548C130.819 142.378 131.131 142.5 131.131 142.852Z"
                        fill="#FAFAFA"
                      />
                      <path
                        d="M127.707 144.384V146.961C127.688 147.144 127.616 147.321 127.497 147.478C127.378 147.636 127.214 147.771 127.019 147.873L126.268 148.213C125.893 148.384 125.58 148.213 125.58 147.91V145.333C125.599 145.15 125.671 144.973 125.79 144.816C125.909 144.658 126.072 144.523 126.268 144.421L127.019 144.081C127.394 143.91 127.707 144.044 127.707 144.384Z"
                        fill="#FAFAFA"
                      />
                      <path
                        d="M124.282 145.915V148.492C124.265 148.673 124.196 148.849 124.079 149.007C123.963 149.165 123.803 149.3 123.61 149.403L122.844 149.756C122.468 149.914 122.171 149.756 122.171 149.452V146.863C122.188 146.681 122.258 146.505 122.374 146.348C122.49 146.19 122.651 146.054 122.844 145.951L123.61 145.611C123.969 145.441 124.282 145.574 124.282 145.915Z"
                        fill="#455A64"
                      />
                      <path
                        d="M120.858 147.447V150.036C120.841 150.218 120.771 150.394 120.655 150.551C120.539 150.709 120.378 150.845 120.186 150.948L119.419 151.288C119.044 151.446 118.747 151.288 118.747 150.984V148.395C118.764 148.214 118.833 148.038 118.95 147.88C119.066 147.722 119.227 147.587 119.419 147.484L120.186 147.143C120.561 146.973 120.858 147.107 120.858 147.447Z"
                        fill="#FAFAFA"
                      />
                      <path
                        d="M117.432 148.979V151.569C117.415 151.75 117.346 151.926 117.229 152.084C117.113 152.242 116.952 152.377 116.76 152.48L115.993 152.821C115.618 152.991 115.321 152.821 115.321 152.517V149.928C115.338 149.746 115.408 149.57 115.524 149.412C115.64 149.255 115.801 149.119 115.993 149.016L116.76 148.676C117.135 148.505 117.432 148.651 117.432 148.979Z"
                        fill="#455A64"
                      />
                      <path
                        d="M73.6307 181.36L-28 135.753V112.95L73.6307 158.556V181.36Z"
                        fill="#2C6FD9"
                      />
                      <path
                        opacity="0.5"
                        d="M73.6307 181.36L-28 135.753V112.95L73.6307 158.556V181.36Z"
                        fill="white"
                      />
                      <g opacity="0.75">
                        <path
                          d="M-11.924 125.872L13.0967 137.092C14.0859 137.589 14.9093 138.261 15.4992 139.053C16.0892 139.846 16.4287 140.736 16.4901 141.65V146.974C16.4901 148.651 14.9263 149.332 13.0967 148.493L-11.924 137.274C-12.8966 136.779 -13.7081 136.115 -14.2942 135.335C-14.8804 134.554 -15.2253 133.678 -15.3018 132.777V127.453C-15.3018 125.714 -13.7849 125.034 -11.924 125.872Z"
                          fill="white"
                        />
                      </g>
                      <path
                        d="M4.07324 137.638L5.63703 136.946C5.96844 136.828 6.33397 136.781 6.69652 136.808C7.05907 136.836 7.40571 136.938 7.70123 137.104C8.55946 137.537 9.27424 138.122 9.78771 138.811C10.3012 139.499 10.5989 140.272 10.6568 141.066C10.6948 141.35 10.6353 141.637 10.4842 141.898C10.3331 142.158 10.0959 142.383 9.79672 142.549L8.34239 143.193L8.07655 142.853C7.78435 142.803 7.50444 142.717 7.24773 142.598C6.3895 142.164 5.67473 141.579 5.16127 140.891C4.6478 140.202 4.35007 139.43 4.29217 138.635C4.29732 138.439 4.32877 138.243 4.38601 138.052L4.07324 137.638Z"
                        fill="#2C6FD9"
                      />
                      <path
                        opacity="0.2"
                        d="M4.07324 137.638L5.63703 136.946C5.96844 136.828 6.33397 136.781 6.69652 136.808C7.05907 136.836 7.40571 136.938 7.70123 137.104C8.55946 137.537 9.27424 138.122 9.78771 138.811C10.3012 139.499 10.5989 140.272 10.6568 141.066C10.6948 141.35 10.6353 141.637 10.4842 141.898C10.3331 142.158 10.0959 142.383 9.79672 142.549L8.34239 143.193L8.07655 142.853C7.78435 142.803 7.50444 142.717 7.24773 142.598C6.3895 142.164 5.67473 141.579 5.16127 140.891C4.6478 140.202 4.35007 139.43 4.29217 138.635C4.29732 138.439 4.32877 138.243 4.38601 138.052L4.07324 137.638Z"
                        fill="black"
                      />
                      <path
                        d="M6.26316 137.735C7.11935 138.17 7.83174 138.755 8.34254 139.444C8.85333 140.132 9.14815 140.904 9.20308 141.698C9.20308 143.157 7.8895 143.752 6.26316 143.023C5.40697 142.589 4.69458 142.003 4.18378 141.315C3.67298 140.626 3.37817 139.854 3.32324 139.06C3.27633 137.638 4.5899 137.006 6.26316 137.735Z"
                        fill="#2C6FD9"
                      />
                      <path
                        d="M162.563 147.156V141.455L73.6306 181.361V187.062L162.563 147.156Z"
                        fill="#455A64"
                      />
                      <path
                        d="M-21.6514 138.597V144.31L73.6303 187.061V181.36L-21.6514 138.597Z"
                        fill="#37474F"
                      />
                      <path
                        d="M102.733 155.397L101.169 154.692C100.837 154.577 100.472 154.531 100.11 154.559C99.7478 154.586 99.4014 154.687 99.1045 154.85C98.2483 155.285 97.536 155.87 97.0252 156.558C96.5144 157.247 96.2196 158.019 96.1646 158.813C96.1281 159.096 96.1867 159.381 96.3347 159.641C96.4827 159.901 96.7151 160.127 97.0091 160.296L98.4477 160.94L98.7136 160.6C99.01 160.548 99.2947 160.462 99.5581 160.344C100.414 159.91 101.127 159.325 101.637 158.636C102.148 157.948 102.443 157.175 102.498 156.382C102.493 156.185 102.461 155.99 102.404 155.798L102.733 155.397Z"
                        fill="#2C6FD9"
                      />
                      <path
                        opacity="0.4"
                        d="M102.733 155.397L101.169 154.692C100.837 154.577 100.472 154.531 100.11 154.559C99.7478 154.586 99.4014 154.687 99.1045 154.85C98.2483 155.285 97.536 155.87 97.0252 156.558C96.5144 157.247 96.2196 158.019 96.1646 158.813C96.1281 159.096 96.1867 159.381 96.3347 159.641C96.4827 159.901 96.7151 160.127 97.0091 160.296L98.4477 160.94L98.7136 160.6C99.01 160.548 99.2947 160.462 99.5581 160.344C100.414 159.91 101.127 159.325 101.637 158.636C102.148 157.948 102.443 157.175 102.498 156.382C102.493 156.185 102.461 155.99 102.404 155.798L102.733 155.397Z"
                        fill="black"
                      />
                      <path
                        d="M100.59 155.518C99.7339 155.953 99.0215 156.538 98.5107 157.227C97.9999 157.915 97.7051 158.687 97.6501 159.481C97.6501 160.94 98.9637 161.535 100.59 160.806C101.446 160.372 102.159 159.786 102.669 159.098C103.18 158.409 103.475 157.637 103.53 156.843C103.53 155.385 102.216 154.789 100.59 155.518Z"
                        fill="#2C6FD9"
                      />
                      <path
                        opacity="0.2"
                        d="M100.59 155.518C99.7339 155.953 99.0215 156.538 98.5107 157.227C97.9999 157.915 97.7051 158.687 97.6501 159.481C97.6501 160.94 98.9637 161.535 100.59 160.806C101.446 160.372 102.159 159.786 102.669 159.098C103.18 158.409 103.475 157.637 103.53 156.843C103.53 155.385 102.216 154.789 100.59 155.518Z"
                        fill="black"
                      />
                      <path
                        d="M89.9566 161.122L88.3928 160.429C88.0601 160.313 87.6938 160.268 87.3312 160.297C86.9686 160.327 86.6227 160.431 86.3286 160.599C85.4724 161.033 84.7601 161.619 84.2493 162.307C83.7385 162.995 83.4437 163.768 83.3887 164.561C83.3507 164.846 83.4102 165.133 83.5613 165.393C83.7124 165.654 83.9496 165.878 84.2488 166.044L85.6875 166.689L85.9533 166.348C86.2497 166.297 86.5344 166.211 86.7978 166.093C87.654 165.659 88.3664 165.073 88.8772 164.385C89.388 163.696 89.6828 162.924 89.7377 162.13C89.7413 161.933 89.7098 161.737 89.6439 161.547L89.9566 161.122Z"
                        fill="#2C6FD9"
                      />
                      <path
                        opacity="0.4"
                        d="M89.9566 161.122L88.3928 160.429C88.0601 160.313 87.6938 160.268 87.3312 160.297C86.9686 160.327 86.6227 160.431 86.3286 160.599C85.4724 161.033 84.7601 161.619 84.2493 162.307C83.7385 162.995 83.4437 163.768 83.3887 164.561C83.3507 164.846 83.4102 165.133 83.5613 165.393C83.7124 165.654 83.9496 165.878 84.2488 166.044L85.6875 166.689L85.9533 166.348C86.2497 166.297 86.5344 166.211 86.7978 166.093C87.654 165.659 88.3664 165.073 88.8772 164.385C89.388 163.696 89.6828 162.924 89.7377 162.13C89.7413 161.933 89.7098 161.737 89.6439 161.547L89.9566 161.122Z"
                        fill="black"
                      />
                      <path
                        d="M87.8147 161.256C86.9585 161.691 86.2461 162.276 85.7353 162.965C85.2245 163.653 84.9297 164.425 84.8748 165.219C84.8748 166.678 86.1883 167.261 87.8147 166.532C88.6709 166.097 89.3833 165.512 89.8941 164.824C90.4048 164.135 90.6997 163.363 90.7546 162.569C90.7077 161.111 89.441 160.527 87.8147 161.256Z"
                        fill="#2C6FD9"
                      />
                      <path
                        opacity="0.2"
                        d="M87.8147 161.256C86.9585 161.691 86.2461 162.276 85.7353 162.965C85.2245 163.653 84.9297 164.425 84.8748 165.219C84.8748 166.678 86.1883 167.261 87.8147 166.532C88.6709 166.097 89.3833 165.512 89.8941 164.824C90.4048 164.135 90.6997 163.363 90.7546 162.569C90.7077 161.111 89.441 160.527 87.8147 161.256Z"
                        fill="black"
                      />
                      <path
                        d="M175.277 78.7458L73.6307 124.353L-28 78.7458L73.6307 33.1268L175.277 78.7458Z"
                        fill="#2C6FD9"
                      />
                      <path
                        opacity="0.15"
                        d="M175.277 78.7458L73.6307 124.353L-28 78.7458L73.6307 33.1268L175.277 78.7458Z"
                        fill="white"
                      />
                      <path
                        opacity="0.1"
                        d="M175.277 78.7458L73.6307 124.353L-28 78.7458L73.6307 33.1268L175.277 78.7458Z"
                        fill="black"
                      />
                      <path
                        opacity="0.1"
                        d="M73.6307 118.664V124.353L-28 78.7459L-21.651 75.9016L73.6307 118.664Z"
                        fill="black"
                      />
                      <path
                        d="M175.261 101.55L73.6306 147.156V124.353L175.277 78.7462L175.261 101.55Z"
                        fill="#2C6FD9"
                      />
                      <path
                        opacity="0.65"
                        d="M175.261 101.55L73.6306 147.156V124.353L175.277 78.7462L175.261 101.55Z"
                        fill="white"
                      />
                      <path
                        d="M165.535 88.8214L115.134 111.442C114.146 111.941 113.324 112.613 112.735 113.406C112.145 114.198 111.804 115.087 111.74 116.001V121.325C111.74 123.002 113.304 123.683 115.134 122.844L165.535 100.223C166.518 99.7219 167.335 99.0483 167.922 98.2566C168.509 97.4649 168.848 96.5771 168.913 95.6648V90.3408C168.897 88.6633 167.333 87.9826 165.535 88.8214Z"
                        fill="#2C6FD9"
                      />
                      <path
                        d="M165.347 93.3314V95.9083C165.329 96.0897 165.26 96.2658 165.144 96.4236C165.027 96.5813 164.867 96.7168 164.674 96.82L163.908 97.1725C163.533 97.3305 163.236 97.1725 163.236 96.8686V94.2795C163.253 94.0981 163.322 93.9221 163.439 93.7643C163.555 93.6065 163.715 93.471 163.908 93.3678L164.674 93.0275C165.034 92.8573 165.347 92.991 165.347 93.3314Z"
                        fill="#FAFAFA"
                      />
                      <path
                        d="M161.922 94.8638V97.4529C161.905 97.6343 161.835 97.8103 161.719 97.9681C161.603 98.1259 161.442 98.2614 161.25 98.3645L160.483 98.7049C160.108 98.8751 159.811 98.7049 159.811 98.401V95.8119C159.828 95.6305 159.897 95.4545 160.014 95.2967C160.13 95.1389 160.291 95.0034 160.483 94.9003L161.25 94.5599C161.625 94.3897 161.922 94.5234 161.922 94.8638Z"
                        fill="#455A64"
                      />
                      <path
                        d="M158.498 96.394V98.9831C158.481 99.1645 158.411 99.3405 158.295 99.4983C158.179 99.6561 158.018 99.7916 157.825 99.8948L157.059 100.235C156.684 100.405 156.387 100.235 156.387 99.9312V97.3421C156.404 97.1608 156.473 96.9847 156.59 96.8269C156.706 96.6691 156.866 96.5337 157.059 96.4305L157.825 96.0901C158.201 95.92 158.498 96.0658 158.498 96.394Z"
                        fill="#FAFAFA"
                      />
                      <path
                        d="M155.073 97.9255V100.515C155.055 100.696 154.986 100.872 154.87 101.03C154.753 101.188 154.593 101.323 154.4 101.426L153.634 101.767C153.259 101.937 152.961 101.767 152.961 101.463V98.8858C152.97 98.7028 153.036 98.5243 153.153 98.3655C153.27 98.2067 153.435 98.0724 153.634 97.9741L154.4 97.6216C154.822 97.5244 155.073 97.5973 155.073 97.9255Z"
                        fill="#FAFAFA"
                      />
                      <path
                        d="M151.695 99.4698V102.047C151.676 102.229 151.605 102.406 151.485 102.564C151.366 102.722 151.203 102.856 151.007 102.958L150.257 103.299C149.881 103.469 149.569 103.299 149.569 102.995V100.418C149.58 100.234 149.649 100.055 149.769 99.8965C149.889 99.7377 150.056 99.6039 150.257 99.5062L151.007 99.1659C151.351 98.9957 151.695 99.1294 151.695 99.4698Z"
                        fill="#FAFAFA"
                      />
                      <path
                        d="M148.239 101.003V103.604C148.22 103.786 148.148 103.963 148.029 104.121C147.91 104.279 147.747 104.414 147.551 104.516L146.8 104.856C146.425 105.026 146.112 104.856 146.112 104.552V101.975C146.131 101.793 146.203 101.616 146.322 101.458C146.441 101.3 146.605 101.165 146.8 101.064L147.551 100.723C147.926 100.529 148.239 100.662 148.239 101.003Z"
                        fill="#455A64"
                      />
                      <path
                        d="M144.815 102.532V105.109C144.798 105.291 144.728 105.467 144.612 105.624C144.495 105.782 144.335 105.918 144.142 106.021L143.376 106.361C143.001 106.531 142.704 106.361 142.704 106.057V103.48C142.721 103.299 142.79 103.123 142.907 102.965C143.023 102.807 143.183 102.672 143.376 102.569L144.142 102.228C144.502 102.058 144.815 102.192 144.815 102.532Z"
                        fill="#455A64"
                      />
                      <path
                        d="M141.389 104.064V106.653C141.372 106.834 141.303 107.01 141.187 107.168C141.07 107.326 140.91 107.461 140.717 107.565L139.951 107.905C139.575 108.063 139.278 107.905 139.278 107.601V105.012C139.296 104.831 139.365 104.655 139.481 104.497C139.598 104.339 139.758 104.203 139.951 104.1L140.717 103.76C141.092 103.602 141.389 103.723 141.389 104.064Z"
                        fill="#FAFAFA"
                      />
                      <path
                        d="M137.965 105.597V108.186C137.947 108.368 137.878 108.544 137.762 108.701C137.645 108.859 137.485 108.995 137.292 109.098L136.526 109.438C136.151 109.608 135.854 109.438 135.854 109.134V106.545C135.871 106.364 135.94 106.188 136.056 106.03C136.173 105.872 136.333 105.737 136.526 105.634L137.292 105.293C137.621 105.123 137.965 105.269 137.965 105.597Z"
                        fill="#455A64"
                      />
                      <path
                        d="M134.494 107.128V109.68C134.476 109.862 134.407 110.038 134.291 110.195C134.174 110.353 134.014 110.489 133.821 110.592L133.055 110.932C132.68 111.102 132.383 110.932 132.383 110.628V108.039C132.4 107.858 132.469 107.682 132.586 107.524C132.702 107.366 132.862 107.231 133.055 107.128L133.821 106.787C134.243 106.666 134.494 106.799 134.494 107.128Z"
                        fill="#FAFAFA"
                      />
                      <path
                        d="M131.131 108.659V111.248C131.112 111.43 131.041 111.607 130.922 111.765C130.802 111.923 130.639 112.058 130.443 112.159L129.677 112.5C129.317 112.67 129.005 112.5 129.005 112.196V109.68C129.022 109.498 129.091 109.322 129.208 109.165C129.324 109.007 129.484 108.871 129.677 108.768L130.443 108.416C130.819 108.197 131.131 108.331 131.131 108.659Z"
                        fill="#FAFAFA"
                      />
                      <path
                        d="M127.707 110.203V112.779C127.688 112.962 127.616 113.139 127.497 113.296C127.378 113.454 127.214 113.589 127.019 113.691L126.268 114.031C125.893 114.202 125.58 114.031 125.58 113.728V111.151C125.599 110.968 125.671 110.791 125.79 110.634C125.909 110.476 126.072 110.341 126.268 110.239L127.019 109.899C127.394 109.68 127.707 109.862 127.707 110.203Z"
                        fill="#FAFAFA"
                      />
                      <path
                        d="M124.282 111.735V114.312C124.265 114.494 124.196 114.67 124.079 114.828C123.963 114.985 123.803 115.121 123.61 115.224L122.844 115.564C122.468 115.735 122.171 115.564 122.171 115.26V112.684C122.188 112.502 122.258 112.326 122.374 112.168C122.49 112.011 122.651 111.875 122.844 111.772L123.61 111.432C123.969 111.261 124.282 111.395 124.282 111.735Z"
                        fill="#455A64"
                      />
                      <path
                        d="M120.858 113.327V115.904C120.849 116.087 120.783 116.265 120.666 116.424C120.549 116.583 120.384 116.717 120.186 116.815L119.419 117.168C119.044 117.326 118.747 117.168 118.747 116.864V114.275C118.764 114.094 118.833 113.918 118.95 113.76C119.066 113.602 119.227 113.467 119.419 113.363L120.186 113.023C120.561 112.792 120.858 112.926 120.858 113.327Z"
                        fill="#FAFAFA"
                      />
                      <path
                        d="M117.432 114.798V117.387C117.415 117.569 117.346 117.745 117.229 117.903C117.113 118.06 116.952 118.196 116.76 118.299L115.993 118.639C115.618 118.81 115.321 118.639 115.321 118.335V115.759C115.338 115.577 115.408 115.401 115.524 115.243C115.64 115.086 115.801 114.95 115.993 114.847L116.76 114.507C117.135 114.324 117.432 114.458 117.432 114.798Z"
                        fill="#FAFAFA"
                      />
                      <path
                        d="M73.6307 147.156L-28 101.55V78.7462L73.6307 124.353V147.156Z"
                        fill="#2C6FD9"
                      />
                      <path
                        opacity="0.5"
                        d="M73.6307 147.156L-28 101.55V78.7462L73.6307 124.353V147.156Z"
                        fill="white"
                      />
                      <g opacity="0.75">
                        <path
                          d="M-11.924 91.7034L13.0967 102.911C14.0842 103.409 14.9062 104.082 15.4959 104.874C16.0856 105.666 16.4263 106.555 16.4901 107.469V112.805C16.4901 114.482 14.9263 115.163 13.0967 114.324L-11.924 103.105C-12.9068 102.604 -13.7245 101.93 -14.3112 101.139C-14.8979 100.347 -15.2372 99.4591 -15.3018 98.5468V93.2228C-15.3018 91.5454 -13.7849 90.8647 -11.924 91.7034Z"
                          fill="white"
                        />
                      </g>
                      <path
                        d="M4.07324 103.432L5.63703 102.739C5.96726 102.618 6.33371 102.568 6.69726 102.596C7.06081 102.624 7.40781 102.728 7.70123 102.897C8.55946 103.331 9.27424 103.916 9.78771 104.604C10.3012 105.292 10.5989 106.065 10.6568 106.86C10.6948 107.144 10.6353 107.431 10.4842 107.691C10.3331 107.952 10.0959 108.177 9.79672 108.343L8.34239 108.987L8.07655 108.646C7.78435 108.597 7.50444 108.511 7.24773 108.391C6.3895 107.957 5.67473 107.373 5.16127 106.684C4.6478 105.996 4.35007 105.223 4.29217 104.429C4.29638 104.232 4.32785 104.036 4.38601 103.845L4.07324 103.432Z"
                        fill="#2C6FD9"
                      />
                      <path
                        opacity="0.2"
                        d="M4.07324 103.432L5.63703 102.739C5.96726 102.618 6.33371 102.568 6.69726 102.596C7.06081 102.624 7.40781 102.728 7.70123 102.897C8.55946 103.331 9.27424 103.916 9.78771 104.604C10.3012 105.292 10.5989 106.065 10.6568 106.86C10.6948 107.144 10.6353 107.431 10.4842 107.691C10.3331 107.952 10.0959 108.177 9.79672 108.343L8.34239 108.987L8.07655 108.646C7.78435 108.597 7.50444 108.511 7.24773 108.391C6.3895 107.957 5.67473 107.373 5.16127 106.684C4.6478 105.996 4.35007 105.223 4.29217 104.429C4.29638 104.232 4.32785 104.036 4.38601 103.845L4.07324 103.432Z"
                        fill="black"
                      />
                      <path
                        d="M6.26316 103.603C7.11935 104.037 7.83174 104.623 8.34254 105.311C8.85333 106 9.14815 106.772 9.20308 107.566C9.20308 109.024 7.8895 109.62 6.26316 108.891C5.40697 108.456 4.69458 107.871 4.18378 107.182C3.67298 106.494 3.37817 105.722 3.32324 104.928C3.27633 103.433 4.5899 102.837 6.26316 103.603Z"
                        fill="#2C6FD9"
                      />
                      <path
                        d="M162.563 112.95V107.249L73.6306 147.155V152.856L162.563 112.95Z"
                        fill="#455A64"
                      />
                      <path
                        d="M-21.6514 104.394V110.095L73.6303 152.857V147.156L-21.6514 104.394Z"
                        fill="#37474F"
                      />
                      <path
                        d="M102.733 121.18L101.169 120.487C100.839 120.366 100.472 120.316 100.109 120.344C99.745 120.372 99.398 120.476 99.1045 120.645C98.2483 121.079 97.536 121.665 97.0252 122.353C96.5144 123.042 96.2196 123.814 96.1646 124.608C96.1281 124.891 96.1867 125.176 96.3347 125.436C96.4827 125.696 96.7151 125.921 97.0091 126.091L98.4477 126.735L98.7136 126.394C99.01 126.343 99.2947 126.257 99.5581 126.139C100.414 125.705 101.127 125.12 101.637 124.431C102.148 123.743 102.443 122.97 102.498 122.177C102.493 121.98 102.461 121.785 102.404 121.593L102.733 121.18Z"
                        fill="#2C6FD9"
                      />
                      <path
                        opacity="0.4"
                        d="M102.733 121.18L101.169 120.487C100.839 120.366 100.472 120.316 100.109 120.344C99.745 120.372 99.398 120.476 99.1045 120.645C98.2483 121.079 97.536 121.665 97.0252 122.353C96.5144 123.042 96.2196 123.814 96.1646 124.608C96.1281 124.891 96.1867 125.176 96.3347 125.436C96.4827 125.696 96.7151 125.921 97.0091 126.091L98.4477 126.735L98.7136 126.394C99.01 126.343 99.2947 126.257 99.5581 126.139C100.414 125.705 101.127 125.12 101.637 124.431C102.148 123.743 102.443 122.97 102.498 122.177C102.493 121.98 102.461 121.785 102.404 121.593L102.733 121.18Z"
                        fill="black"
                      />
                      <path
                        d="M100.59 121.312C99.7339 121.747 99.0215 122.332 98.5107 123.02C97.9999 123.709 97.7051 124.481 97.6501 125.275C97.6501 126.733 98.9637 127.329 100.59 126.6C101.446 126.165 102.159 125.58 102.669 124.892C103.18 124.203 103.475 123.431 103.53 122.637C103.53 121.179 102.216 120.619 100.59 121.312Z"
                        fill="#2C6FD9"
                      />
                      <path
                        opacity="0.2"
                        d="M100.59 121.312C99.7339 121.747 99.0215 122.332 98.5107 123.02C97.9999 123.709 97.7051 124.481 97.6501 125.275C97.6501 126.733 98.9637 127.329 100.59 126.6C101.446 126.165 102.159 125.58 102.669 124.892C103.18 124.203 103.475 123.431 103.53 122.637C103.53 121.179 102.216 120.619 100.59 121.312Z"
                        fill="black"
                      />
                      <path
                        d="M89.9568 126.917L88.3931 126.212C88.0603 126.096 87.694 126.051 87.3314 126.081C86.9689 126.111 86.6229 126.215 86.3288 126.382C85.4727 126.817 84.7603 127.402 84.2495 128.09C83.7387 128.779 83.4439 129.551 83.3889 130.345C83.3505 130.627 83.4099 130.913 83.5612 131.171C83.7124 131.43 83.9499 131.652 84.249 131.816L85.6877 132.46L85.9536 132.119C86.25 132.068 86.5346 131.982 86.798 131.864C87.6559 131.431 88.3696 130.846 88.8807 130.158C89.3917 129.469 89.6855 128.696 89.7379 127.902C89.7395 127.705 89.7079 127.509 89.6441 127.318L89.9568 126.917Z"
                        fill="#2C6FD9"
                      />
                      <path
                        opacity="0.4"
                        d="M89.9568 126.917L88.3931 126.212C88.0603 126.096 87.694 126.051 87.3314 126.081C86.9689 126.111 86.6229 126.215 86.3288 126.382C85.4727 126.817 84.7603 127.402 84.2495 128.09C83.7387 128.779 83.4439 129.551 83.3889 130.345C83.3505 130.627 83.4099 130.913 83.5612 131.171C83.7124 131.43 83.9499 131.652 84.249 131.816L85.6877 132.46L85.9536 132.119C86.25 132.068 86.5346 131.982 86.798 131.864C87.6559 131.431 88.3696 130.846 88.8807 130.158C89.3917 129.469 89.6855 128.696 89.7379 127.902C89.7395 127.705 89.7079 127.509 89.6441 127.318L89.9568 126.917Z"
                        fill="black"
                      />
                      <path
                        d="M87.8147 127.039C86.9585 127.474 86.2461 128.059 85.7353 128.748C85.2245 129.436 84.9297 130.208 84.8748 131.002C84.8748 132.461 86.1883 133.056 87.8147 132.327C88.6709 131.893 89.3833 131.307 89.8941 130.619C90.4048 129.93 90.6997 129.158 90.7546 128.364C90.7077 126.906 89.441 126.31 87.8147 127.039Z"
                        fill="#2C6FD9"
                      />
                      <path
                        opacity="0.2"
                        d="M87.8147 127.039C86.9585 127.474 86.2461 128.059 85.7353 128.748C85.2245 129.436 84.9297 130.208 84.8748 131.002C84.8748 132.461 86.1883 133.056 87.8147 132.327C88.6709 131.893 89.3833 131.307 89.8941 130.619C90.4048 129.93 90.6997 129.158 90.7546 128.364C90.7077 126.906 89.441 126.31 87.8147 127.039Z"
                        fill="black"
                      />
                      <path
                        d="M-23.9341 42.717L69.6274 0.756814C70.8871 0.259306 72.2802 0 73.6932 0C75.1062 0 76.4993 0.259306 77.7591 0.756814L171.211 42.717C172.393 43.3173 173.377 44.1251 174.083 45.0752C174.789 46.0254 175.198 47.0913 175.277 48.1869V67.3437L73.5056 112.963L-28 67.3437V48.1869C-27.9199 47.0915 -27.5104 46.026 -26.8042 45.076C-26.0981 44.126 -25.115 43.318 -23.9341 42.717Z"
                        fill="#2C6FD9"
                      />
                      <path
                        opacity="0.5"
                        d="M-23.9341 42.717L69.6274 0.756814C70.8871 0.259306 72.2802 0 73.6932 0C75.1062 0 76.4993 0.259306 77.7591 0.756814L171.211 42.717C172.393 43.3173 173.377 44.1251 174.083 45.0752C174.789 46.0254 175.198 47.0913 175.277 48.1869V67.3437L73.5056 112.963L-28 67.3437V48.1869C-27.9199 47.0915 -27.5104 46.026 -26.8042 45.076C-26.0981 44.126 -25.115 43.318 -23.9341 42.717Z"
                        fill="white"
                      />
                      <g opacity="0.75">
                        <path
                          d="M-11.924 57.4129L13.0967 68.6323C14.0842 69.1306 14.9062 69.8032 15.4959 70.5954C16.0856 71.3875 16.4263 72.2767 16.4901 73.1905V78.5145C16.4901 80.1919 14.9263 80.8726 13.0967 80.0339L-11.924 68.8146C-12.9068 68.3134 -13.7245 67.6399 -14.3112 66.8481C-14.8979 66.0564 -15.2372 65.1686 -15.3018 64.2563V58.9323C-15.3018 57.3035 -13.7849 56.6228 -11.924 57.4129Z"
                          fill="white"
                        />
                      </g>
                      <path
                        d="M4.07324 69.2026L5.63703 68.4976C5.96916 68.3824 6.33413 68.3365 6.69605 68.3642C7.05798 68.3919 7.40439 68.4923 7.70123 68.6556C8.55946 69.0894 9.27424 69.6742 9.78771 70.3626C10.3012 71.0511 10.5989 71.8238 10.6568 72.6183C10.6948 72.9025 10.6353 73.1894 10.4842 73.4499C10.3331 73.7104 10.0959 73.9352 9.79672 74.1012L8.34239 74.7455L8.07655 74.4051C7.78435 74.3554 7.50444 74.2692 7.24773 74.1498C6.3895 73.716 5.67473 73.1312 5.16127 72.4428C4.6478 71.7544 4.35007 70.9817 4.29217 70.1872C4.2983 69.9908 4.32974 69.7953 4.38601 69.6037L4.07324 69.2026Z"
                        fill="#2C6FD9"
                      />
                      <path
                        opacity="0.2"
                        d="M4.07324 69.2026L5.63703 68.4976C5.96916 68.3824 6.33413 68.3365 6.69605 68.3642C7.05798 68.3919 7.40439 68.4923 7.70123 68.6556C8.55946 69.0894 9.27424 69.6742 9.78771 70.3626C10.3012 71.0511 10.5989 71.8238 10.6568 72.6183C10.6948 72.9025 10.6353 73.1894 10.4842 73.4499C10.3331 73.7104 10.0959 73.9352 9.79672 74.1012L8.34239 74.7455L8.07655 74.4051C7.78435 74.3554 7.50444 74.2692 7.24773 74.1498C6.3895 73.716 5.67473 73.1312 5.16127 72.4428C4.6478 71.7544 4.35007 70.9817 4.29217 70.1872C4.2983 69.9908 4.32974 69.7953 4.38601 69.6037L4.07324 69.2026Z"
                        fill="black"
                      />
                      <path
                        d="M6.26316 69.3239C7.11935 69.7584 7.83174 70.3436 8.34254 71.0321C8.85333 71.7206 9.14815 72.493 9.20308 73.2866C9.20308 74.7452 7.8895 75.3408 6.26316 74.6115C5.40697 74.1771 4.69458 73.5919 4.18378 72.9034C3.67298 72.2149 3.37817 71.4425 3.32324 70.6489C3.27633 69.1903 4.5899 68.5946 6.26316 69.3239Z"
                        fill="#2C6FD9"
                      />
                      <path
                        d="M73.5833 89.0774V112.951L175.23 67.3437V48.1869C175.157 47.2087 174.824 46.2528 174.25 45.3802C173.677 44.5075 172.876 43.7372 171.899 43.1182C173.384 44.1271 173.134 45.4763 171.164 46.3636L77.6022 88.3238C76.3657 88.8344 74.9832 89.0936 73.5833 89.0774Z"
                        fill="#2C6FD9"
                      />
                      <path
                        opacity="0.65"
                        d="M73.5833 89.0774V112.951L175.23 67.3437V48.1869C175.157 47.2087 174.824 46.2528 174.25 45.3802C173.677 44.5075 172.876 43.7372 171.899 43.1182C173.384 44.1271 173.134 45.4763 171.164 46.3636L77.6022 88.3238C76.3657 88.8344 74.9832 89.0936 73.5833 89.0774Z"
                        fill="white"
                      />
                      <path
                        d="M165.535 54.6047L115.134 77.2257C114.146 77.7241 113.324 78.3967 112.735 79.1888C112.145 79.981 111.804 80.8701 111.74 81.784V87.108C111.74 88.7855 113.304 89.4662 115.134 88.6274L165.535 66.0185C166.518 65.5174 167.335 64.8438 167.922 64.0521C168.509 63.2604 168.848 62.3726 168.913 61.4603V56.1241C168.897 54.4467 167.333 53.766 165.535 54.6047Z"
                        fill="#2C6FD9"
                      />
                      <path
                        d="M165.347 59.1155V61.7046C165.329 61.886 165.26 62.062 165.144 62.2198C165.027 62.3776 164.867 62.5131 164.674 62.6163L163.908 62.9566C163.533 63.1268 163.236 62.9566 163.236 62.6527V60.0758C163.244 59.8929 163.31 59.7143 163.427 59.5555C163.544 59.3967 163.709 59.2624 163.908 59.1641L164.674 58.8116C164.741 58.7729 164.82 58.7502 164.903 58.7464C164.986 58.7426 165.068 58.7579 165.14 58.7903C165.212 58.8227 165.27 58.8709 165.306 58.9287C165.343 58.9865 165.357 59.0515 165.347 59.1155Z"
                        fill="#455A64"
                      />
                      <path
                        d="M161.922 60.6581V63.235C161.905 63.4164 161.835 63.5925 161.719 63.7502C161.603 63.908 161.442 64.0435 161.25 64.1467L160.483 64.487C160.108 64.6572 159.811 64.487 159.811 64.1831V61.6062C159.828 61.4248 159.897 61.2487 160.014 61.091C160.13 60.9332 160.291 60.7977 160.483 60.6946L161.25 60.3542C161.625 60.184 161.922 60.3178 161.922 60.6581Z"
                        fill="#FAFAFA"
                      />
                      <path
                        d="M158.498 62.1905V64.7674C158.481 64.9488 158.411 65.1249 158.295 65.2827C158.179 65.4405 158.018 65.5759 157.825 65.6791L157.059 66.0194C156.684 66.1896 156.387 66.0194 156.387 65.7156V63.1386C156.404 62.9572 156.473 62.7812 156.59 62.6234C156.706 62.4656 156.866 62.3302 157.059 62.227L157.825 61.8866C158.201 61.7165 158.498 61.8502 158.498 62.1905Z"
                        fill="#455A64"
                      />
                      <path
                        d="M155.073 63.7219V66.2988C155.064 66.4817 154.998 66.6603 154.881 66.8191C154.764 66.9779 154.599 67.1122 154.4 67.2105L153.634 67.563C153.259 67.721 152.961 67.563 152.961 67.2591V64.7065C152.979 64.5251 153.048 64.349 153.164 64.1913C153.281 64.0335 153.441 63.898 153.634 63.7948L154.4 63.4545C154.822 63.2478 155.073 63.3815 155.073 63.7219Z"
                        fill="#455A64"
                      />
                      <path
                        d="M151.695 65.2531V67.8421C151.676 68.0245 151.604 68.2013 151.485 68.3592C151.366 68.517 151.203 68.6519 151.007 68.7538L150.256 69.0941C150.19 69.1371 150.109 69.1635 150.023 69.1695C149.938 69.1756 149.852 69.1611 149.777 69.128C149.702 69.0949 149.642 69.0448 149.604 68.9845C149.567 68.9241 149.555 68.8563 149.568 68.7902V66.2012C149.587 66.0188 149.659 65.842 149.778 65.6842C149.897 65.5263 150.061 65.3914 150.256 65.2895L151.007 64.9492C151.351 64.779 151.695 64.9127 151.695 65.2531Z"
                        fill="#455A64"
                      />
                      <path
                        d="M148.239 66.784V69.3731C148.22 69.5555 148.148 69.7322 148.029 69.8901C147.91 70.0479 147.747 70.1829 147.551 70.2847L146.8 70.6251C146.734 70.6681 146.653 70.6944 146.567 70.7004C146.482 70.7065 146.395 70.692 146.321 70.659C146.246 70.6259 146.186 70.5758 146.148 70.5154C146.111 70.4551 146.099 70.3873 146.112 70.3212V67.7321C146.131 67.5497 146.203 67.373 146.322 67.2151C146.441 67.0573 146.605 66.9224 146.8 66.8205L147.551 66.4801C147.617 66.4371 147.698 66.4108 147.784 66.4048C147.87 66.3987 147.956 66.4132 148.031 66.4463C148.106 66.4794 148.166 66.5294 148.203 66.5898C148.24 66.6502 148.253 66.7179 148.239 66.784Z"
                        fill="#FAFAFA"
                      />
                      <path
                        d="M144.815 68.3517V70.9408C144.798 71.1222 144.728 71.2982 144.612 71.456C144.495 71.6138 144.335 71.7493 144.142 71.8525L143.376 72.1928C143.001 72.363 142.704 72.1928 142.704 71.8889V69.312C142.712 69.1291 142.778 68.9505 142.895 68.7917C143.012 68.6329 143.177 68.4986 143.376 68.4004L144.142 68.0478C144.209 68.0091 144.288 67.9864 144.371 67.9826C144.454 67.9788 144.536 67.9941 144.608 68.0265C144.68 68.0589 144.738 68.1071 144.774 68.1649C144.811 68.2227 144.825 68.2877 144.815 68.3517Z"
                        fill="#FAFAFA"
                      />
                      <path
                        d="M141.389 69.8593V72.4363C141.372 72.6177 141.303 72.7937 141.187 72.9515C141.07 73.1093 140.91 73.2447 140.717 73.3479L139.951 73.6883C139.575 73.8585 139.278 73.6883 139.278 73.3844V70.7832C139.287 70.6002 139.353 70.4217 139.47 70.2629C139.587 70.1041 139.752 69.9698 139.951 69.8715L140.748 69.5676C141.092 69.3853 141.389 69.5676 141.389 69.8593Z"
                        fill="#455A64"
                      />
                      <path
                        d="M137.965 71.3914V73.9684C137.947 74.1497 137.878 74.3258 137.762 74.4836C137.645 74.6414 137.485 74.7768 137.292 74.88L136.526 75.2204C136.151 75.3905 135.854 75.2204 135.854 74.9165V72.3396C135.871 72.1582 135.94 71.9821 136.056 71.8243C136.173 71.6666 136.333 71.5311 136.526 71.4279L137.292 71.0876C137.621 70.9174 137.965 71.0511 137.965 71.3914Z"
                        fill="#FAFAFA"
                      />
                      <path
                        d="M134.494 72.9238V75.5007C134.485 75.6836 134.419 75.8622 134.302 76.021C134.185 76.1798 134.02 76.3141 133.821 76.4124L133.055 76.7527C132.68 76.9229 132.383 76.7527 132.383 76.4488V73.8719C132.4 73.6905 132.469 73.5144 132.586 73.3567C132.702 73.1989 132.862 73.0634 133.055 72.9603L133.821 72.6199C134.243 72.4497 134.494 72.5834 134.494 72.9238Z"
                        fill="#455A64"
                      />
                      <path
                        d="M131.131 74.4303V77.0194C131.112 77.2018 131.041 77.3786 130.922 77.5364C130.802 77.6943 130.639 77.8292 130.443 77.9311L129.677 78.2714C129.611 78.3102 129.531 78.3328 129.448 78.3366C129.366 78.3404 129.283 78.3252 129.211 78.2928C129.14 78.2603 129.082 78.2122 129.045 78.1543C129.008 78.0965 128.994 78.0315 129.005 77.9675V75.4027C129.022 75.2214 129.091 75.0453 129.208 74.8875C129.324 74.7298 129.484 74.5943 129.677 74.4911L130.443 74.1507C130.819 73.9806 131.131 74.1143 131.131 74.4303Z"
                        fill="#455A64"
                      />
                      <path
                        d="M127.707 75.9871V78.5762C127.688 78.7586 127.616 78.9354 127.497 79.0932C127.377 79.2511 127.214 79.386 127.018 79.4879L126.268 79.8282C126.202 79.8712 126.12 79.8975 126.035 79.9036C125.949 79.9096 125.863 79.8951 125.788 79.8621C125.713 79.829 125.653 79.7789 125.616 79.7186C125.579 79.6582 125.566 79.5904 125.58 79.5243V76.9352C125.599 76.7528 125.67 76.5761 125.79 76.4183C125.909 76.2604 126.072 76.1255 126.268 76.0236L127.018 75.6833C127.084 75.6402 127.166 75.614 127.252 75.6079C127.337 75.6019 127.423 75.6164 127.498 75.6494C127.573 75.6825 127.633 75.7325 127.67 75.7929C127.708 75.8533 127.72 75.9211 127.707 75.9871Z"
                        fill="#455A64"
                      />
                      <path
                        d="M124.282 77.5166V80.1057C124.265 80.2871 124.196 80.4631 124.079 80.6209C123.963 80.7787 123.803 80.9141 123.61 81.0173L122.844 81.3577C122.468 81.5278 122.171 81.3577 122.171 81.0538V78.4647C122.188 78.2833 122.258 78.1072 122.374 77.9494C122.49 77.7917 122.651 77.6562 122.844 77.553L123.61 77.2127C123.969 77.0425 124.282 77.1884 124.282 77.5166Z"
                        fill="#FAFAFA"
                      />
                      <path
                        d="M120.858 79.0481V81.6372C120.841 81.8185 120.771 81.9946 120.655 82.1524C120.539 82.3102 120.378 82.4456 120.186 82.5488L119.419 82.8892C119.044 83.0593 118.747 82.8892 118.747 82.5853V80.0084C118.756 79.8254 118.821 79.6469 118.938 79.4881C119.056 79.3293 119.221 79.195 119.419 79.0967L120.186 78.7442C120.561 78.5862 120.858 78.7199 120.858 79.0481Z"
                        fill="#455A64"
                      />
                      <path
                        d="M117.432 80.5924V83.1693C117.415 83.3507 117.346 83.5267 117.229 83.6845C117.113 83.8423 116.952 83.9778 116.76 84.0809L115.993 84.4213C115.618 84.5915 115.321 84.4213 115.321 84.1174V81.5405C115.338 81.3591 115.408 81.183 115.524 81.0252C115.64 80.8675 115.801 80.732 115.993 80.6288L116.76 80.2885C117.135 80.1183 117.432 80.252 117.432 80.5924Z"
                        fill="#455A64"
                      />
                      <path
                        d="M171.211 46.3636L77.6342 88.3238C76.3772 88.8212 74.9867 89.0805 73.5762 89.0805C72.1656 89.0805 70.7751 88.8212 69.5181 88.3238L-23.9339 46.3636C-26.1858 45.3547 -26.1858 43.7259 -23.9339 42.717L69.6276 0.756814C70.8874 0.259306 72.2804 0 73.6934 0C75.1065 0 76.4995 0.259306 77.7593 0.756814L171.211 42.717C173.448 43.7259 173.448 45.3547 171.211 46.3636Z"
                        fill="#2C6FD9"
                      />
                      <path
                        opacity="0.85"
                        d="M171.211 46.3636L77.6342 88.3238C76.3772 88.8212 74.9867 89.0805 73.5762 89.0805C72.1656 89.0805 70.7751 88.8212 69.5181 88.3238L-23.9339 46.3636C-26.1858 45.3547 -26.1858 43.7259 -23.9339 42.717L69.6276 0.756814C70.8874 0.259306 72.2804 0 73.6934 0C75.1065 0 76.4995 0.259306 77.7593 0.756814L171.211 42.717C173.448 43.7259 173.448 45.3547 171.211 46.3636Z"
                        fill="white"
                      />
                      <path
                        d="M162.563 78.7446V73.0438L73.6306 112.962V118.663L162.563 78.7446Z"
                        fill="#455A64"
                      />
                      <path
                        d="M-21.6514 70.1992V75.9L73.6303 118.662V112.962L-21.6514 70.1992Z"
                        fill="#37474F"
                      />
                      <path
                        d="M102.733 86.9858L101.169 86.2929C100.837 86.1771 100.47 86.1318 100.108 86.1617C99.7451 86.1915 99.3991 86.2955 99.1051 86.4631C98.2489 86.8975 97.5365 87.4828 97.0257 88.1712C96.5149 88.8597 96.2201 89.6321 96.1652 90.4257C96.1266 90.707 96.1845 90.9912 96.3328 91.2495C96.4811 91.5078 96.7146 91.731 97.0096 91.8965L98.4483 92.5408L98.7141 92.2126C99.0083 92.1555 99.2921 92.0697 99.5586 91.9573C100.415 91.5229 101.127 90.9377 101.638 90.2492C102.149 89.5607 102.444 88.7883 102.498 87.9947C102.494 87.7981 102.463 87.6025 102.405 87.4112L102.733 86.9858Z"
                        fill="#2C6FD9"
                      />
                      <path
                        opacity="0.4"
                        d="M102.733 86.9858L101.169 86.2929C100.837 86.1771 100.47 86.1318 100.108 86.1617C99.7451 86.1915 99.3991 86.2955 99.1051 86.4631C98.2489 86.8975 97.5365 87.4828 97.0257 88.1712C96.5149 88.8597 96.2201 89.6321 96.1652 90.4257C96.1266 90.707 96.1845 90.9912 96.3328 91.2495C96.4811 91.5078 96.7146 91.731 97.0096 91.8965L98.4483 92.5408L98.7141 92.2126C99.0083 92.1555 99.2921 92.0697 99.5586 91.9573C100.415 91.5229 101.127 90.9377 101.638 90.2492C102.149 89.5607 102.444 88.7883 102.498 87.9947C102.494 87.7981 102.463 87.6025 102.405 87.4112L102.733 86.9858Z"
                        fill="black"
                      />
                      <path
                        d="M100.59 87.1206C99.7342 87.5524 99.0217 88.1353 98.5108 88.8219C97.9999 89.5084 97.705 90.2791 97.6501 91.071C97.6501 92.5418 98.9637 93.1253 100.59 92.396C101.446 91.9615 102.159 91.3763 102.669 90.6878C103.18 89.9993 103.475 89.2269 103.53 88.4333C103.53 86.9747 102.216 86.3912 100.59 87.1206Z"
                        fill="#2C6FD9"
                      />
                      <path
                        opacity="0.2"
                        d="M100.59 87.1206C99.7342 87.5524 99.0217 88.1353 98.5108 88.8219C97.9999 89.5084 97.705 90.2791 97.6501 91.071C97.6501 92.5418 98.9637 93.1253 100.59 92.396C101.446 91.9615 102.159 91.3763 102.669 90.6878C103.18 89.9993 103.475 89.2269 103.53 88.4333C103.53 86.9747 102.216 86.3912 100.59 87.1206Z"
                        fill="black"
                      />
                      <path
                        d="M89.9566 92.6633L88.3928 91.9704C88.0626 91.849 87.6962 91.7996 87.3326 91.8274C86.9691 91.8553 86.6221 91.9593 86.3286 92.1285C85.4724 92.5629 84.7601 93.1481 84.2493 93.8366C83.7385 94.5251 83.4437 95.2975 83.3887 96.0911C83.3507 96.3753 83.4102 96.6623 83.5613 96.9228C83.7124 97.1833 83.9496 97.408 84.2488 97.5741L85.6875 98.2183L85.9533 97.8779C86.2497 97.8264 86.5344 97.7403 86.7978 97.6227C87.654 97.1882 88.3664 96.603 88.8772 95.9145C89.388 95.226 89.6828 94.4537 89.7377 93.66C89.7403 93.4632 89.7088 93.2669 89.6439 93.0766L89.9566 92.6633Z"
                        fill="#2C6FD9"
                      />
                      <path
                        opacity="0.4"
                        d="M89.9566 92.6633L88.3928 91.9704C88.0626 91.849 87.6962 91.7996 87.3326 91.8274C86.9691 91.8553 86.6221 91.9593 86.3286 92.1285C85.4724 92.5629 84.7601 93.1481 84.2493 93.8366C83.7385 94.5251 83.4437 95.2975 83.3887 96.0911C83.3507 96.3753 83.4102 96.6623 83.5613 96.9228C83.7124 97.1833 83.9496 97.408 84.2488 97.5741L85.6875 98.2183L85.9533 97.8779C86.2497 97.8264 86.5344 97.7403 86.7978 97.6227C87.654 97.1882 88.3664 96.603 88.8772 95.9145C89.388 95.226 89.6828 94.4537 89.7377 93.66C89.7403 93.4632 89.7088 93.2669 89.6439 93.0766L89.9566 92.6633Z"
                        fill="black"
                      />
                      <path
                        d="M87.8147 92.8448C86.9585 93.2792 86.2461 93.8644 85.7353 94.5529C85.2245 95.2414 84.9297 96.0138 84.8748 96.8074C84.8748 98.2661 86.1883 98.8617 87.8147 98.1323C88.6709 97.6979 89.3833 97.1127 89.8941 96.4242C90.4048 95.7357 90.6997 94.9633 90.7546 94.1697C90.7077 92.6624 89.441 92.1155 87.8147 92.8448Z"
                        fill="#2C6FD9"
                      />
                      <path
                        opacity="0.2"
                        d="M87.8147 92.8448C86.9585 93.2792 86.2461 93.8644 85.7353 94.5529C85.2245 95.2414 84.9297 96.0138 84.8748 96.8074C84.8748 98.2661 86.1883 98.8617 87.8147 98.1323C88.6709 97.6979 89.3833 97.1127 89.8941 96.4242C90.4048 95.7357 90.6997 94.9633 90.7546 94.1697C90.7077 92.6624 89.441 92.1155 87.8147 92.8448Z"
                        fill="black"
                      />
                    </svg>