<svg width="117" height="27" viewBox="0 0 117 27" fill="none" xmlns="http://www.w3.org/2000/svg">
<path d="M22.9391 4.38696L5 22.0113H14.9137M14.9137 22.0113H36L22.9391 14.458L14.9137 22.0113Z" stroke="url(#paint0_linear_766_1999)" stroke-width="4"/>
<path d="M53.952 20.6232C53.504 20.7032 53.016 20.7992 52.488 20.9112C51.96 21.0232 51.496 21.1272 51.096 21.2232C51.288 20.5352 51.472 19.7672 51.648 18.9192C51.84 18.0552 52.024 17.1512 52.2 16.2072C52.392 15.2632 52.568 14.3112 52.728 13.3512C52.904 12.3752 53.072 11.4392 53.232 10.5432C53.568 8.41522 53.904 6.21522 54.24 3.94322L62.28 3.53522L61.584 6.48722H57.816L57.072 10.7592C57.568 10.7432 58.04 10.7352 58.488 10.7352C58.856 10.7352 59.232 10.7352 59.616 10.7352C60 10.7352 60.296 10.7272 60.504 10.7112C60.456 11.1592 60.392 11.5992 60.312 12.0312C60.248 12.4632 60.184 12.8952 60.12 13.3272C59.912 13.3272 59.616 13.3272 59.232 13.3272C58.848 13.3112 58.448 13.2952 58.032 13.2792C57.632 13.2632 57.176 13.2472 56.664 13.2312L55.56 20.3112C55.016 20.4072 54.48 20.5112 53.952 20.6232ZM69.1637 16.5192C68.9397 17.4312 68.6197 18.2072 68.2037 18.8472C67.8037 19.4872 67.3237 20.0152 66.7637 20.4312C66.2197 20.8472 65.6357 21.1512 65.0117 21.3432C64.3877 21.5352 63.7637 21.6312 63.1397 21.6312C62.7717 21.6312 62.3957 21.5672 62.0117 21.4392C61.6277 21.3272 61.2837 21.1512 60.9797 20.9112C60.6757 20.6712 60.4197 20.3672 60.2117 19.9992C60.0197 19.6312 59.9237 19.1992 59.9237 18.7032C59.9237 18.6392 59.9237 18.5752 59.9237 18.5112C59.9237 18.4472 59.9317 18.3832 59.9477 18.3192C60.0117 17.6632 60.1157 16.8712 60.2597 15.9432C60.4037 15.0152 60.5557 14.0472 60.7157 13.0392C60.8757 12.0312 61.0517 11.0232 61.2437 10.0152C61.4357 8.99122 61.6037 8.06322 61.7477 7.23122C61.9077 6.39922 62.0437 5.71122 62.1557 5.16722C62.2677 4.60722 62.3397 4.26322 62.3717 4.13522C62.7077 4.10322 63.1077 4.06322 63.5717 4.01522C64.0357 3.96722 64.4677 3.92722 64.8677 3.89522C65.3637 3.84722 65.8517 3.79922 66.3317 3.75122C65.9157 5.68722 65.5477 7.43922 65.2277 9.00722C65.0837 9.67922 64.9397 10.3512 64.7957 11.0232C64.6677 11.6952 64.5397 12.3112 64.4117 12.8712C64.2997 13.4312 64.1957 13.9192 64.0997 14.3352C64.0197 14.7352 63.9477 15.0632 63.8837 15.3192C63.8357 15.5752 63.7717 15.9032 63.6917 16.3032C63.6277 16.6872 63.5957 17.0392 63.5957 17.3592C63.5957 17.6152 63.6597 17.8312 63.7877 18.0072C63.9157 18.1672 64.0757 18.2472 64.2677 18.2472C64.5397 18.2472 64.7637 18.1432 64.9397 17.9352C65.1157 17.7112 65.2597 17.4472 65.3717 17.1432C65.4997 16.8392 65.5877 16.5352 65.6357 16.2312C65.6997 15.9112 65.7557 15.6632 65.8037 15.4872C65.8997 15.0232 66.0037 14.5112 66.1157 13.9512C66.2437 13.3752 66.3637 12.7832 66.4757 12.1752C66.6037 11.5512 66.7237 10.9192 66.8357 10.2792C66.9637 9.63922 67.0837 9.01522 67.1957 8.40722C67.4677 6.99922 67.7317 5.54322 67.9877 4.03922L71.6357 3.79922C71.6357 3.79922 71.5957 4.00722 71.5157 4.42322C71.4357 4.83922 71.3317 5.39122 71.2037 6.07922C71.0757 6.76722 70.9317 7.55122 70.7717 8.43122C70.6277 9.31122 70.4597 10.2312 70.2677 11.1912C70.0757 12.1352 69.8837 13.0712 69.6917 13.9992C69.5157 14.9112 69.3397 15.7512 69.1637 16.5192ZM82.2904 12.0552C82.1784 13.6872 81.8584 15.1112 81.3304 16.3272C80.8024 17.5272 80.1624 18.5352 79.4104 19.3512C78.6744 20.1672 77.8744 20.7752 77.0104 21.1752C76.1624 21.5752 75.3544 21.7752 74.5864 21.7752C73.9944 21.7752 73.4264 21.6472 72.8824 21.3912C72.3544 21.1352 71.8904 20.7512 71.4904 20.2392C71.1064 19.7112 70.8024 19.0552 70.5784 18.2712C70.3544 17.4872 70.2424 16.5672 70.2424 15.5112C70.2424 13.4472 70.5384 11.6472 71.1304 10.1112C71.7224 8.57522 72.4664 7.29522 73.3624 6.27122C74.2744 5.24722 75.2424 4.48722 76.2664 3.99122C77.3064 3.49522 78.2744 3.24722 79.1704 3.24722C79.8104 3.24722 80.3624 3.35922 80.8264 3.58322C81.3064 3.80722 81.6984 4.11122 82.0024 4.49522C82.3064 4.86322 82.5224 5.30322 82.6504 5.81522C82.7944 6.31122 82.8664 6.83922 82.8664 7.39922L79.5784 8.02322C79.4344 7.38322 79.2424 6.92722 79.0024 6.65522C78.7624 6.38322 78.4904 6.24722 78.1864 6.24722C77.7864 6.24722 77.3464 6.53522 76.8664 7.11122C76.3864 7.67122 75.9384 8.39922 75.5224 9.29522C75.1064 10.1912 74.7544 11.1752 74.4664 12.2472C74.1784 13.3192 74.0184 14.3752 73.9864 15.4152C73.9864 16.4072 74.1304 17.1192 74.4184 17.5512C74.7224 17.9672 75.1064 18.1752 75.5704 18.1752C75.8904 18.1752 76.2184 18.0952 76.5544 17.9352C76.9064 17.7752 77.2184 17.5512 77.4904 17.2632C77.7624 16.9592 77.9864 16.6152 78.1624 16.2312C78.3544 15.8312 78.4584 15.3992 78.4744 14.9352L75.9064 15.3192L76.3624 12.9432C77.1144 12.8472 77.8504 12.7512 78.5704 12.6552C79.1784 12.5752 79.8184 12.4792 80.4904 12.3672C81.1784 12.2552 81.7784 12.1512 82.2904 12.0552ZM94.6509 8.21522C94.6509 9.52722 94.5069 10.7672 94.2189 11.9352C93.9469 13.0872 93.5789 14.1512 93.1149 15.1272C92.6509 16.0872 92.1069 16.9512 91.4829 17.7192C90.8749 18.4712 90.2349 19.1192 89.5629 19.6632C88.8909 20.1912 88.2109 20.5992 87.5229 20.8872C86.8349 21.1592 86.1789 21.2952 85.5549 21.2952C85.0269 21.2952 84.5469 21.1992 84.1149 21.0072C83.6829 20.7992 83.3069 20.5032 82.9869 20.1192C82.6669 19.7192 82.4109 19.2152 82.2189 18.6072C82.0429 17.9832 81.9549 17.2392 81.9549 16.3752C81.9549 15.4792 82.0669 14.5352 82.2909 13.5432C82.5149 12.5512 82.8189 11.5672 83.2029 10.5912C83.5869 9.61522 84.0589 8.68722 84.6189 7.80722C85.1789 6.92722 85.7949 6.15122 86.4669 5.47922C87.1389 4.79122 87.8589 4.24722 88.6269 3.84722C89.3949 3.44722 90.1949 3.24722 91.0269 3.24722C91.7469 3.24722 92.3389 3.39922 92.8029 3.70322C93.2829 3.99122 93.6509 4.37522 93.9069 4.85522C94.1789 5.31922 94.3709 5.84722 94.4829 6.43922C94.5949 7.03122 94.6509 7.62322 94.6509 8.21522ZM85.5309 15.7512C85.5309 15.9272 85.5629 16.1112 85.6269 16.3032C85.6909 16.4952 85.7789 16.6632 85.8909 16.8072C86.0029 16.9512 86.1389 17.0792 86.2989 17.1912C86.4749 17.2872 86.6589 17.3352 86.8509 17.3352C87.5709 17.3352 88.2109 17.0872 88.7709 16.5912C89.3309 16.0952 89.7949 15.4872 90.1629 14.7672C90.5309 14.0472 90.8109 13.2792 91.0029 12.4632C91.2109 11.6472 91.3149 10.9032 91.3149 10.2312C91.3149 10.0392 91.2989 9.83122 91.2669 9.60722C91.2509 9.38322 91.2029 9.17522 91.1229 8.98322C91.0589 8.79122 90.9469 8.63122 90.7869 8.50322C90.6429 8.35922 90.4429 8.28722 90.1869 8.28722C89.6749 8.28722 89.2029 8.41522 88.7709 8.67122C88.3389 8.92722 87.9469 9.27122 87.5949 9.70322C87.2589 10.1192 86.9629 10.5992 86.7069 11.1432C86.4509 11.6712 86.2269 12.2152 86.0349 12.7752C85.8589 13.3192 85.7309 13.8552 85.6509 14.3832C85.5709 14.9112 85.5309 15.3672 85.5309 15.7512ZM93.2149 21.2232C93.6949 18.9832 94.1429 16.8072 94.5589 14.6952C94.7189 13.7832 94.8869 12.8392 95.0629 11.8632C95.2389 10.8872 95.3989 9.91922 95.5429 8.95922C95.7029 7.99922 95.8389 7.07122 95.9509 6.17522C96.0789 5.26322 96.1749 4.43922 96.2389 3.70322C96.6069 3.73522 97.0229 3.76722 97.4869 3.79922C97.9509 3.81522 98.3829 3.83922 98.7829 3.87122C99.2629 3.90322 99.7429 3.91922 100.223 3.91922C100.207 3.98322 100.183 4.10322 100.151 4.27922C100.119 4.45522 100.079 4.67122 100.031 4.92722C99.9829 5.16722 99.9269 5.43922 99.8629 5.74322C99.8149 6.04722 99.7589 6.35122 99.6949 6.65522C99.5669 7.35922 99.4229 8.15122 99.2629 9.03122L99.4069 9.00722C99.5669 8.75122 99.7909 8.39922 100.079 7.95122C100.383 7.48722 100.695 6.99922 101.015 6.48722C101.335 5.97522 101.647 5.48722 101.951 5.02322C102.255 4.54322 102.511 4.13522 102.719 3.79922C103.519 3.73522 104.319 3.66322 105.119 3.58322C105.919 3.50322 106.719 3.39922 107.519 3.27122C106.767 4.27922 106.039 5.27122 105.335 6.24722C105.031 6.66322 104.719 7.09522 104.399 7.54322C104.095 7.99122 103.791 8.43122 103.487 8.86322C103.183 9.29522 102.895 9.71122 102.623 10.1112C102.367 10.5112 102.135 10.8792 101.927 11.2152C102.279 12.8312 102.695 14.3912 103.175 15.8952C103.655 17.3992 104.143 18.9352 104.639 20.5032C104.271 20.4872 103.895 20.4792 103.511 20.4792C103.127 20.4632 102.751 20.4552 102.383 20.4552C101.919 20.4552 101.471 20.4632 101.039 20.4792C100.607 20.4792 100.159 20.4872 99.6949 20.5032C99.5509 19.4632 99.3909 18.3752 99.2149 17.2392C99.0549 16.0872 98.9029 14.9912 98.7589 13.9512L98.3269 14.4552C98.2149 14.9352 98.0869 15.5272 97.9429 16.2312C97.8149 16.9352 97.6869 17.6152 97.5589 18.2712C97.4149 19.0392 97.2629 19.8312 97.1029 20.6472L93.2149 21.2232ZM114.117 16.5192C113.893 17.4312 113.573 18.2072 113.157 18.8472C112.757 19.4872 112.277 20.0152 111.717 20.4312C111.173 20.8472 110.589 21.1512 109.965 21.3432C109.341 21.5352 108.717 21.6312 108.093 21.6312C107.725 21.6312 107.349 21.5672 106.965 21.4392C106.581 21.3272 106.237 21.1512 105.933 20.9112C105.629 20.6712 105.373 20.3672 105.165 19.9992C104.973 19.6312 104.877 19.1992 104.877 18.7032C104.877 18.6392 104.877 18.5752 104.877 18.5112C104.877 18.4472 104.885 18.3832 104.901 18.3192C104.965 17.6632 105.069 16.8712 105.213 15.9432C105.357 15.0152 105.509 14.0472 105.669 13.0392C105.829 12.0312 106.005 11.0232 106.197 10.0152C106.389 8.99122 106.557 8.06322 106.701 7.23122C106.861 6.39922 106.997 5.71122 107.109 5.16722C107.221 4.60722 107.293 4.26322 107.325 4.13522C107.661 4.10322 108.061 4.06322 108.525 4.01522C108.989 3.96722 109.421 3.92722 109.821 3.89522C110.317 3.84722 110.805 3.79922 111.285 3.75122C110.869 5.68722 110.501 7.43922 110.181 9.00722C110.037 9.67922 109.893 10.3512 109.749 11.0232C109.621 11.6952 109.493 12.3112 109.365 12.8712C109.253 13.4312 109.149 13.9192 109.053 14.3352C108.973 14.7352 108.901 15.0632 108.837 15.3192C108.789 15.5752 108.725 15.9032 108.645 16.3032C108.581 16.6872 108.549 17.0392 108.549 17.3592C108.549 17.6152 108.613 17.8312 108.741 18.0072C108.869 18.1672 109.029 18.2472 109.221 18.2472C109.493 18.2472 109.717 18.1432 109.893 17.9352C110.069 17.7112 110.213 17.4472 110.325 17.1432C110.453 16.8392 110.541 16.5352 110.589 16.2312C110.653 15.9112 110.709 15.6632 110.757 15.4872C110.853 15.0232 110.957 14.5112 111.069 13.9512C111.197 13.3752 111.317 12.7832 111.429 12.1752C111.557 11.5512 111.677 10.9192 111.789 10.2792C111.917 9.63922 112.037 9.01522 112.149 8.40722C112.421 6.99922 112.685 5.54322 112.941 4.03922L116.589 3.79922C116.589 3.79922 116.549 4.00722 116.469 4.42322C116.389 4.83922 116.285 5.39122 116.157 6.07922C116.029 6.76722 115.885 7.55122 115.725 8.43122C115.581 9.31122 115.413 10.2312 115.221 11.1912C115.029 12.1352 114.837 13.0712 114.645 13.9992C114.469 14.9112 114.293 15.7512 114.117 16.5192Z" fill="url(#paint1_linear_766_1999)"/>
<defs>
<linearGradient id="paint0_linear_766_1999" x1="5" y1="13.1991" x2="36" y2="13.1991" gradientUnits="userSpaceOnUse">
<stop stop-color="#C3CBD6"/>
<stop offset="0.065" stop-color="#A4ABB5"/>
<stop offset="1" stop-color="#37474F"/>
</linearGradient>
<linearGradient id="paint1_linear_766_1999" x1="51" y1="13.1992" x2="115" y2="13.1992" gradientUnits="userSpaceOnUse">
<stop stop-color="#C3CBD6"/>
<stop offset="0.065" stop-color="#A4ABB5"/>
<stop offset="1" stop-color="#37474F"/>
</linearGradient>
</defs>
</svg>
