<svg width="117" height="26" viewBox="0 0 117 26" fill="none" xmlns="http://www.w3.org/2000/svg">
<path d="M22.9391 4.18799L5 21.8124H14.9137M14.9137 21.8124H36L22.9391 14.2591L14.9137 21.8124Z" stroke="#2C6FD9" stroke-width="4"/>
<path d="M53.952 20.424C53.504 20.504 53.016 20.6 52.488 20.712C51.96 20.824 51.496 20.928 51.096 21.024C51.288 20.336 51.472 19.568 51.648 18.72C51.84 17.856 52.024 16.952 52.2 16.008C52.392 15.064 52.568 14.112 52.728 13.152C52.904 12.176 53.072 11.24 53.232 10.344C53.568 8.216 53.904 6.016 54.24 3.744L62.28 3.336L61.584 6.288H57.816L57.072 10.56C57.568 10.544 58.04 10.536 58.488 10.536C58.856 10.536 59.232 10.536 59.616 10.536C60 10.536 60.296 10.528 60.504 10.512C60.456 10.96 60.392 11.4 60.312 11.832C60.248 12.264 60.184 12.696 60.12 13.128C59.912 13.128 59.616 13.128 59.232 13.128C58.848 13.112 58.448 13.096 58.032 13.08C57.632 13.064 57.176 13.048 56.664 13.032L55.56 20.112C55.016 20.208 54.48 20.312 53.952 20.424ZM69.1637 16.32C68.9397 17.232 68.6197 18.008 68.2037 18.648C67.8037 19.288 67.3237 19.816 66.7637 20.232C66.2197 20.648 65.6357 20.952 65.0117 21.144C64.3877 21.336 63.7637 21.432 63.1397 21.432C62.7717 21.432 62.3957 21.368 62.0117 21.24C61.6277 21.128 61.2837 20.952 60.9797 20.712C60.6757 20.472 60.4197 20.168 60.2117 19.8C60.0197 19.432 59.9237 19 59.9237 18.504C59.9237 18.44 59.9237 18.376 59.9237 18.312C59.9237 18.248 59.9317 18.184 59.9477 18.12C60.0117 17.464 60.1157 16.672 60.2597 15.744C60.4037 14.816 60.5557 13.848 60.7157 12.84C60.8757 11.832 61.0517 10.824 61.2437 9.816C61.4357 8.792 61.6037 7.864 61.7477 7.032C61.9077 6.2 62.0437 5.512 62.1557 4.968C62.2677 4.408 62.3397 4.064 62.3717 3.936C62.7077 3.904 63.1077 3.864 63.5717 3.816C64.0357 3.768 64.4677 3.728 64.8677 3.696C65.3637 3.648 65.8517 3.6 66.3317 3.552C65.9157 5.488 65.5477 7.24 65.2277 8.808C65.0837 9.48 64.9397 10.152 64.7957 10.824C64.6677 11.496 64.5397 12.112 64.4117 12.672C64.2997 13.232 64.1957 13.72 64.0997 14.136C64.0197 14.536 63.9477 14.864 63.8837 15.12C63.8357 15.376 63.7717 15.704 63.6917 16.104C63.6277 16.488 63.5957 16.84 63.5957 17.16C63.5957 17.416 63.6597 17.632 63.7877 17.808C63.9157 17.968 64.0757 18.048 64.2677 18.048C64.5397 18.048 64.7637 17.944 64.9397 17.736C65.1157 17.512 65.2597 17.248 65.3717 16.944C65.4997 16.64 65.5877 16.336 65.6357 16.032C65.6997 15.712 65.7557 15.464 65.8037 15.288C65.8997 14.824 66.0037 14.312 66.1157 13.752C66.2437 13.176 66.3637 12.584 66.4757 11.976C66.6037 11.352 66.7237 10.72 66.8357 10.08C66.9637 9.44 67.0837 8.816 67.1957 8.208C67.4677 6.8 67.7317 5.344 67.9877 3.84L71.6357 3.6C71.6357 3.6 71.5957 3.808 71.5157 4.224C71.4357 4.64 71.3317 5.192 71.2037 5.88C71.0757 6.568 70.9317 7.352 70.7717 8.232C70.6277 9.112 70.4597 10.032 70.2677 10.992C70.0757 11.936 69.8837 12.872 69.6917 13.8C69.5157 14.712 69.3397 15.552 69.1637 16.32ZM82.2904 11.856C82.1784 13.488 81.8584 14.912 81.3304 16.128C80.8024 17.328 80.1624 18.336 79.4104 19.152C78.6744 19.968 77.8744 20.576 77.0104 20.976C76.1624 21.376 75.3544 21.576 74.5864 21.576C73.9944 21.576 73.4264 21.448 72.8824 21.192C72.3544 20.936 71.8904 20.552 71.4904 20.04C71.1064 19.512 70.8024 18.856 70.5784 18.072C70.3544 17.288 70.2424 16.368 70.2424 15.312C70.2424 13.248 70.5384 11.448 71.1304 9.912C71.7224 8.376 72.4664 7.096 73.3624 6.072C74.2744 5.048 75.2424 4.288 76.2664 3.792C77.3064 3.296 78.2744 3.048 79.1704 3.048C79.8104 3.048 80.3624 3.16 80.8264 3.384C81.3064 3.608 81.6984 3.912 82.0024 4.296C82.3064 4.664 82.5224 5.104 82.6504 5.616C82.7944 6.112 82.8664 6.64 82.8664 7.2L79.5784 7.824C79.4344 7.184 79.2424 6.728 79.0024 6.456C78.7624 6.184 78.4904 6.048 78.1864 6.048C77.7864 6.048 77.3464 6.336 76.8664 6.912C76.3864 7.472 75.9384 8.2 75.5224 9.096C75.1064 9.992 74.7544 10.976 74.4664 12.048C74.1784 13.12 74.0184 14.176 73.9864 15.216C73.9864 16.208 74.1304 16.92 74.4184 17.352C74.7224 17.768 75.1064 17.976 75.5704 17.976C75.8904 17.976 76.2184 17.896 76.5544 17.736C76.9064 17.576 77.2184 17.352 77.4904 17.064C77.7624 16.76 77.9864 16.416 78.1624 16.032C78.3544 15.632 78.4584 15.2 78.4744 14.736L75.9064 15.12L76.3624 12.744C77.1144 12.648 77.8504 12.552 78.5704 12.456C79.1784 12.376 79.8184 12.28 80.4904 12.168C81.1784 12.056 81.7784 11.952 82.2904 11.856ZM94.6509 8.016C94.6509 9.328 94.5069 10.568 94.2189 11.736C93.9469 12.888 93.5789 13.952 93.1149 14.928C92.6509 15.888 92.1069 16.752 91.4829 17.52C90.8749 18.272 90.2349 18.92 89.5629 19.464C88.8909 19.992 88.2109 20.4 87.5229 20.688C86.8349 20.96 86.1789 21.096 85.5549 21.096C85.0269 21.096 84.5469 21 84.1149 20.808C83.6829 20.6 83.3069 20.304 82.9869 19.92C82.6669 19.52 82.4109 19.016 82.2189 18.408C82.0429 17.784 81.9549 17.04 81.9549 16.176C81.9549 15.28 82.0669 14.336 82.2909 13.344C82.5149 12.352 82.8189 11.368 83.2029 10.392C83.5869 9.416 84.0589 8.488 84.6189 7.608C85.1789 6.728 85.7949 5.952 86.4669 5.28C87.1389 4.592 87.8589 4.048 88.6269 3.648C89.3949 3.248 90.1949 3.048 91.0269 3.048C91.7469 3.048 92.3389 3.2 92.8029 3.504C93.2829 3.792 93.6509 4.176 93.9069 4.656C94.1789 5.12 94.3709 5.648 94.4829 6.24C94.5949 6.832 94.6509 7.424 94.6509 8.016ZM85.5309 15.552C85.5309 15.728 85.5629 15.912 85.6269 16.104C85.6909 16.296 85.7789 16.464 85.8909 16.608C86.0029 16.752 86.1389 16.88 86.2989 16.992C86.4749 17.088 86.6589 17.136 86.8509 17.136C87.5709 17.136 88.2109 16.888 88.7709 16.392C89.3309 15.896 89.7949 15.288 90.1629 14.568C90.5309 13.848 90.8109 13.08 91.0029 12.264C91.2109 11.448 91.3149 10.704 91.3149 10.032C91.3149 9.84 91.2989 9.632 91.2669 9.408C91.2509 9.184 91.2029 8.976 91.1229 8.784C91.0589 8.592 90.9469 8.432 90.7869 8.304C90.6429 8.16 90.4429 8.088 90.1869 8.088C89.6749 8.088 89.2029 8.216 88.7709 8.472C88.3389 8.728 87.9469 9.072 87.5949 9.504C87.2589 9.92 86.9629 10.4 86.7069 10.944C86.4509 11.472 86.2269 12.016 86.0349 12.576C85.8589 13.12 85.7309 13.656 85.6509 14.184C85.5709 14.712 85.5309 15.168 85.5309 15.552ZM93.2149 21.024C93.6949 18.784 94.1429 16.608 94.5589 14.496C94.7189 13.584 94.8869 12.64 95.0629 11.664C95.2389 10.688 95.3989 9.72 95.5429 8.76C95.7029 7.8 95.8389 6.872 95.9509 5.976C96.0789 5.064 96.1749 4.24 96.2389 3.504C96.6069 3.536 97.0229 3.568 97.4869 3.6C97.9509 3.616 98.3829 3.64 98.7829 3.672C99.2629 3.704 99.7429 3.72 100.223 3.72C100.207 3.784 100.183 3.904 100.151 4.08C100.119 4.256 100.079 4.472 100.031 4.728C99.9829 4.968 99.9269 5.24 99.8629 5.544C99.8149 5.848 99.7589 6.152 99.6949 6.456C99.5669 7.16 99.4229 7.952 99.2629 8.832L99.4069 8.808C99.5669 8.552 99.7909 8.2 100.079 7.752C100.383 7.288 100.695 6.8 101.015 6.288C101.335 5.776 101.647 5.288 101.951 4.824C102.255 4.344 102.511 3.936 102.719 3.6C103.519 3.536 104.319 3.464 105.119 3.384C105.919 3.304 106.719 3.2 107.519 3.072C106.767 4.08 106.039 5.072 105.335 6.048C105.031 6.464 104.719 6.896 104.399 7.344C104.095 7.792 103.791 8.232 103.487 8.664C103.183 9.096 102.895 9.512 102.623 9.912C102.367 10.312 102.135 10.68 101.927 11.016C102.279 12.632 102.695 14.192 103.175 15.696C103.655 17.2 104.143 18.736 104.639 20.304C104.271 20.288 103.895 20.28 103.511 20.28C103.127 20.264 102.751 20.256 102.383 20.256C101.919 20.256 101.471 20.264 101.039 20.28C100.607 20.28 100.159 20.288 99.6949 20.304C99.5509 19.264 99.3909 18.176 99.2149 17.04C99.0549 15.888 98.9029 14.792 98.7589 13.752L98.3269 14.256C98.2149 14.736 98.0869 15.328 97.9429 16.032C97.8149 16.736 97.6869 17.416 97.5589 18.072C97.4149 18.84 97.2629 19.632 97.1029 20.448L93.2149 21.024ZM114.117 16.32C113.893 17.232 113.573 18.008 113.157 18.648C112.757 19.288 112.277 19.816 111.717 20.232C111.173 20.648 110.589 20.952 109.965 21.144C109.341 21.336 108.717 21.432 108.093 21.432C107.725 21.432 107.349 21.368 106.965 21.24C106.581 21.128 106.237 20.952 105.933 20.712C105.629 20.472 105.373 20.168 105.165 19.8C104.973 19.432 104.877 19 104.877 18.504C104.877 18.44 104.877 18.376 104.877 18.312C104.877 18.248 104.885 18.184 104.901 18.12C104.965 17.464 105.069 16.672 105.213 15.744C105.357 14.816 105.509 13.848 105.669 12.84C105.829 11.832 106.005 10.824 106.197 9.816C106.389 8.792 106.557 7.864 106.701 7.032C106.861 6.2 106.997 5.512 107.109 4.968C107.221 4.408 107.293 4.064 107.325 3.936C107.661 3.904 108.061 3.864 108.525 3.816C108.989 3.768 109.421 3.728 109.821 3.696C110.317 3.648 110.805 3.6 111.285 3.552C110.869 5.488 110.501 7.24 110.181 8.808C110.037 9.48 109.893 10.152 109.749 10.824C109.621 11.496 109.493 12.112 109.365 12.672C109.253 13.232 109.149 13.72 109.053 14.136C108.973 14.536 108.901 14.864 108.837 15.12C108.789 15.376 108.725 15.704 108.645 16.104C108.581 16.488 108.549 16.84 108.549 17.16C108.549 17.416 108.613 17.632 108.741 17.808C108.869 17.968 109.029 18.048 109.221 18.048C109.493 18.048 109.717 17.944 109.893 17.736C110.069 17.512 110.213 17.248 110.325 16.944C110.453 16.64 110.541 16.336 110.589 16.032C110.653 15.712 110.709 15.464 110.757 15.288C110.853 14.824 110.957 14.312 111.069 13.752C111.197 13.176 111.317 12.584 111.429 11.976C111.557 11.352 111.677 10.72 111.789 10.08C111.917 9.44 112.037 8.816 112.149 8.208C112.421 6.8 112.685 5.344 112.941 3.84L116.589 3.6C116.589 3.6 116.549 3.808 116.469 4.224C116.389 4.64 116.285 5.192 116.157 5.88C116.029 6.568 115.885 7.352 115.725 8.232C115.581 9.112 115.413 10.032 115.221 10.992C115.029 11.936 114.837 12.872 114.645 13.8C114.469 14.712 114.293 15.552 114.117 16.32Z" fill="#2C6FD9"/>
</svg>
